%TF.GenerationSoftware,KiCad,Pcbnew,(6.0.0)*%
%TF.CreationDate,2022-01-25T23:20:27+01:00*%
%TF.ProjectId,esp-temp-thingi-pcb,6573702d-7465-46d7-902d-7468696e6769,rev?*%
%TF.SameCoordinates,Original*%
%TF.FileFunction,Legend,Top*%
%TF.FilePolarity,Positive*%
%FSLAX46Y46*%
G04 Gerber Fmt 4.6, Leading zero omitted, Abs format (unit mm)*
G04 Created by KiCad (PCBNEW (6.0.0)) date 2022-01-25 23:20:27*
%MOMM*%
%LPD*%
G01*
G04 APERTURE LIST*
%ADD10C,0.150000*%
%ADD11C,0.120000*%
%ADD12C,0.100000*%
G04 APERTURE END LIST*
D10*
X144997704Y-111829380D02*
X144902466Y-111781761D01*
X144854847Y-111686523D01*
X144854847Y-110829380D01*
X145569133Y-110829380D02*
X145664371Y-110829380D01*
X145759609Y-110877000D01*
X145807228Y-110924619D01*
X145854847Y-111019857D01*
X145902466Y-111210333D01*
X145902466Y-111448428D01*
X145854847Y-111638904D01*
X145807228Y-111734142D01*
X145759609Y-111781761D01*
X145664371Y-111829380D01*
X145569133Y-111829380D01*
X145473895Y-111781761D01*
X145426276Y-111734142D01*
X145378657Y-111638904D01*
X145331038Y-111448428D01*
X145331038Y-111210333D01*
X145378657Y-111019857D01*
X145426276Y-110924619D01*
X145473895Y-110877000D01*
X145569133Y-110829380D01*
X146759609Y-111162714D02*
X146759609Y-111972238D01*
X146711990Y-112067476D01*
X146664371Y-112115095D01*
X146569133Y-112162714D01*
X146426276Y-112162714D01*
X146331038Y-112115095D01*
X146759609Y-111781761D02*
X146664371Y-111829380D01*
X146473895Y-111829380D01*
X146378657Y-111781761D01*
X146331038Y-111734142D01*
X146283419Y-111638904D01*
X146283419Y-111353190D01*
X146331038Y-111257952D01*
X146378657Y-111210333D01*
X146473895Y-111162714D01*
X146664371Y-111162714D01*
X146759609Y-111210333D01*
X147664371Y-111162714D02*
X147664371Y-111972238D01*
X147616752Y-112067476D01*
X147569133Y-112115095D01*
X147473895Y-112162714D01*
X147331038Y-112162714D01*
X147235800Y-112115095D01*
X147664371Y-111781761D02*
X147569133Y-111829380D01*
X147378657Y-111829380D01*
X147283419Y-111781761D01*
X147235800Y-111734142D01*
X147188180Y-111638904D01*
X147188180Y-111353190D01*
X147235800Y-111257952D01*
X147283419Y-111210333D01*
X147378657Y-111162714D01*
X147569133Y-111162714D01*
X147664371Y-111210333D01*
X148092942Y-110924619D02*
X148140561Y-110877000D01*
X148235800Y-110829380D01*
X148473895Y-110829380D01*
X148569133Y-110877000D01*
X148616752Y-110924619D01*
X148664371Y-111019857D01*
X148664371Y-111115095D01*
X148616752Y-111257952D01*
X148045323Y-111829380D01*
X148664371Y-111829380D01*
X140378657Y-113820333D02*
X140331038Y-113772714D01*
X140235800Y-113629857D01*
X140188180Y-113534619D01*
X140140561Y-113391761D01*
X140092942Y-113153666D01*
X140092942Y-112963190D01*
X140140561Y-112725095D01*
X140188180Y-112582238D01*
X140235800Y-112487000D01*
X140331038Y-112344142D01*
X140378657Y-112296523D01*
X141331038Y-113344142D02*
X141283419Y-113391761D01*
X141140561Y-113439380D01*
X141045323Y-113439380D01*
X140902466Y-113391761D01*
X140807228Y-113296523D01*
X140759609Y-113201285D01*
X140711990Y-113010809D01*
X140711990Y-112867952D01*
X140759609Y-112677476D01*
X140807228Y-112582238D01*
X140902466Y-112487000D01*
X141045323Y-112439380D01*
X141140561Y-112439380D01*
X141283419Y-112487000D01*
X141331038Y-112534619D01*
X142331038Y-113344142D02*
X142283419Y-113391761D01*
X142140561Y-113439380D01*
X142045323Y-113439380D01*
X141902466Y-113391761D01*
X141807228Y-113296523D01*
X141759609Y-113201285D01*
X141711990Y-113010809D01*
X141711990Y-112867952D01*
X141759609Y-112677476D01*
X141807228Y-112582238D01*
X141902466Y-112487000D01*
X142045323Y-112439380D01*
X142140561Y-112439380D01*
X142283419Y-112487000D01*
X142331038Y-112534619D01*
X142664371Y-113820333D02*
X142711990Y-113772714D01*
X142807228Y-113629857D01*
X142854847Y-113534619D01*
X142902466Y-113391761D01*
X142950085Y-113153666D01*
X142950085Y-112963190D01*
X142902466Y-112725095D01*
X142854847Y-112582238D01*
X142807228Y-112487000D01*
X142711990Y-112344142D01*
X142664371Y-112296523D01*
X144188180Y-113439380D02*
X144188180Y-112439380D01*
X144521514Y-113153666D01*
X144854847Y-112439380D01*
X144854847Y-113439380D01*
X145759609Y-113439380D02*
X145759609Y-112915571D01*
X145711990Y-112820333D01*
X145616752Y-112772714D01*
X145426276Y-112772714D01*
X145331038Y-112820333D01*
X145759609Y-113391761D02*
X145664371Y-113439380D01*
X145426276Y-113439380D01*
X145331038Y-113391761D01*
X145283419Y-113296523D01*
X145283419Y-113201285D01*
X145331038Y-113106047D01*
X145426276Y-113058428D01*
X145664371Y-113058428D01*
X145759609Y-113010809D01*
X146235800Y-113439380D02*
X146235800Y-112772714D01*
X146235800Y-112963190D02*
X146283419Y-112867952D01*
X146331038Y-112820333D01*
X146426276Y-112772714D01*
X146521514Y-112772714D01*
X147283419Y-113391761D02*
X147188180Y-113439380D01*
X146997704Y-113439380D01*
X146902466Y-113391761D01*
X146854847Y-113344142D01*
X146807228Y-113248904D01*
X146807228Y-112963190D01*
X146854847Y-112867952D01*
X146902466Y-112820333D01*
X146997704Y-112772714D01*
X147188180Y-112772714D01*
X147283419Y-112820333D01*
X148807228Y-112915571D02*
X148473895Y-112915571D01*
X148473895Y-113439380D02*
X148473895Y-112439380D01*
X148950085Y-112439380D01*
X149331038Y-113439380D02*
X149331038Y-112772714D01*
X149331038Y-112439380D02*
X149283419Y-112487000D01*
X149331038Y-112534619D01*
X149378657Y-112487000D01*
X149331038Y-112439380D01*
X149331038Y-112534619D01*
X149759609Y-113391761D02*
X149854847Y-113439380D01*
X150045323Y-113439380D01*
X150140561Y-113391761D01*
X150188180Y-113296523D01*
X150188180Y-113248904D01*
X150140561Y-113153666D01*
X150045323Y-113106047D01*
X149902466Y-113106047D01*
X149807228Y-113058428D01*
X149759609Y-112963190D01*
X149759609Y-112915571D01*
X149807228Y-112820333D01*
X149902466Y-112772714D01*
X150045323Y-112772714D01*
X150140561Y-112820333D01*
X151045323Y-113391761D02*
X150950085Y-113439380D01*
X150759609Y-113439380D01*
X150664371Y-113391761D01*
X150616752Y-113344142D01*
X150569133Y-113248904D01*
X150569133Y-112963190D01*
X150616752Y-112867952D01*
X150664371Y-112820333D01*
X150759609Y-112772714D01*
X150950085Y-112772714D01*
X151045323Y-112820333D01*
X151473895Y-113439380D02*
X151473895Y-112439380D01*
X151902466Y-113439380D02*
X151902466Y-112915571D01*
X151854847Y-112820333D01*
X151759609Y-112772714D01*
X151616752Y-112772714D01*
X151521514Y-112820333D01*
X151473895Y-112867952D01*
X152759609Y-113391761D02*
X152664371Y-113439380D01*
X152473895Y-113439380D01*
X152378657Y-113391761D01*
X152331038Y-113296523D01*
X152331038Y-112915571D01*
X152378657Y-112820333D01*
X152473895Y-112772714D01*
X152664371Y-112772714D01*
X152759609Y-112820333D01*
X152807228Y-112915571D01*
X152807228Y-113010809D01*
X152331038Y-113106047D01*
X153235800Y-113439380D02*
X153235800Y-112772714D01*
X153235800Y-112963190D02*
X153283419Y-112867952D01*
X153331038Y-112820333D01*
X153426276Y-112772714D01*
X153521514Y-112772714D01*
X144069133Y-114144619D02*
X144116752Y-114097000D01*
X144211990Y-114049380D01*
X144450085Y-114049380D01*
X144545323Y-114097000D01*
X144592942Y-114144619D01*
X144640561Y-114239857D01*
X144640561Y-114335095D01*
X144592942Y-114477952D01*
X144021514Y-115049380D01*
X144640561Y-115049380D01*
X145545323Y-114049380D02*
X145069133Y-114049380D01*
X145021514Y-114525571D01*
X145069133Y-114477952D01*
X145164371Y-114430333D01*
X145402466Y-114430333D01*
X145497704Y-114477952D01*
X145545323Y-114525571D01*
X145592942Y-114620809D01*
X145592942Y-114858904D01*
X145545323Y-114954142D01*
X145497704Y-115001761D01*
X145402466Y-115049380D01*
X145164371Y-115049380D01*
X145069133Y-115001761D01*
X145021514Y-114954142D01*
X146211990Y-114049380D02*
X146307228Y-114049380D01*
X146402466Y-114097000D01*
X146450085Y-114144619D01*
X146497704Y-114239857D01*
X146545323Y-114430333D01*
X146545323Y-114668428D01*
X146497704Y-114858904D01*
X146450085Y-114954142D01*
X146402466Y-115001761D01*
X146307228Y-115049380D01*
X146211990Y-115049380D01*
X146116752Y-115001761D01*
X146069133Y-114954142D01*
X146021514Y-114858904D01*
X145973895Y-114668428D01*
X145973895Y-114430333D01*
X146021514Y-114239857D01*
X146069133Y-114144619D01*
X146116752Y-114097000D01*
X146211990Y-114049380D01*
X147497704Y-115049380D02*
X146926276Y-115049380D01*
X147211990Y-115049380D02*
X147211990Y-114049380D01*
X147116752Y-114192238D01*
X147021514Y-114287476D01*
X146926276Y-114335095D01*
X147878657Y-114144619D02*
X147926276Y-114097000D01*
X148021514Y-114049380D01*
X148259609Y-114049380D01*
X148354847Y-114097000D01*
X148402466Y-114144619D01*
X148450085Y-114239857D01*
X148450085Y-114335095D01*
X148402466Y-114477952D01*
X147831038Y-115049380D01*
X148450085Y-115049380D01*
X148831038Y-114144619D02*
X148878657Y-114097000D01*
X148973895Y-114049380D01*
X149211990Y-114049380D01*
X149307228Y-114097000D01*
X149354847Y-114144619D01*
X149402466Y-114239857D01*
X149402466Y-114335095D01*
X149354847Y-114477952D01*
X148783419Y-115049380D01*
X149402466Y-115049380D01*
X141116752Y-116659380D02*
X141116752Y-115992714D01*
X141116752Y-116087952D02*
X141164371Y-116040333D01*
X141259609Y-115992714D01*
X141402466Y-115992714D01*
X141497704Y-116040333D01*
X141545323Y-116135571D01*
X141545323Y-116659380D01*
X141545323Y-116135571D02*
X141592942Y-116040333D01*
X141688180Y-115992714D01*
X141831038Y-115992714D01*
X141926276Y-116040333D01*
X141973895Y-116135571D01*
X141973895Y-116659380D01*
X142878657Y-116659380D02*
X142878657Y-116135571D01*
X142831038Y-116040333D01*
X142735800Y-115992714D01*
X142545323Y-115992714D01*
X142450085Y-116040333D01*
X142878657Y-116611761D02*
X142783419Y-116659380D01*
X142545323Y-116659380D01*
X142450085Y-116611761D01*
X142402466Y-116516523D01*
X142402466Y-116421285D01*
X142450085Y-116326047D01*
X142545323Y-116278428D01*
X142783419Y-116278428D01*
X142878657Y-116230809D01*
X143354847Y-116659380D02*
X143354847Y-115992714D01*
X143354847Y-116183190D02*
X143402466Y-116087952D01*
X143450085Y-116040333D01*
X143545323Y-115992714D01*
X143640561Y-115992714D01*
X144402466Y-116611761D02*
X144307228Y-116659380D01*
X144116752Y-116659380D01*
X144021514Y-116611761D01*
X143973895Y-116564142D01*
X143926276Y-116468904D01*
X143926276Y-116183190D01*
X143973895Y-116087952D01*
X144021514Y-116040333D01*
X144116752Y-115992714D01*
X144307228Y-115992714D01*
X144402466Y-116040333D01*
X144688180Y-115992714D02*
X145069133Y-115992714D01*
X144831038Y-116659380D02*
X144831038Y-115802238D01*
X144878657Y-115707000D01*
X144973895Y-115659380D01*
X145069133Y-115659380D01*
X145402466Y-116659380D02*
X145402466Y-115992714D01*
X145402466Y-115659380D02*
X145354847Y-115707000D01*
X145402466Y-115754619D01*
X145450085Y-115707000D01*
X145402466Y-115659380D01*
X145402466Y-115754619D01*
X145831038Y-116611761D02*
X145926276Y-116659380D01*
X146116752Y-116659380D01*
X146211990Y-116611761D01*
X146259609Y-116516523D01*
X146259609Y-116468904D01*
X146211990Y-116373666D01*
X146116752Y-116326047D01*
X145973895Y-116326047D01*
X145878657Y-116278428D01*
X145831038Y-116183190D01*
X145831038Y-116135571D01*
X145878657Y-116040333D01*
X145973895Y-115992714D01*
X146116752Y-115992714D01*
X146211990Y-116040333D01*
X147116752Y-116611761D02*
X147021514Y-116659380D01*
X146831038Y-116659380D01*
X146735800Y-116611761D01*
X146688180Y-116564142D01*
X146640561Y-116468904D01*
X146640561Y-116183190D01*
X146688180Y-116087952D01*
X146735800Y-116040333D01*
X146831038Y-115992714D01*
X147021514Y-115992714D01*
X147116752Y-116040333D01*
X147545323Y-116659380D02*
X147545323Y-115659380D01*
X147973895Y-116659380D02*
X147973895Y-116135571D01*
X147926276Y-116040333D01*
X147831038Y-115992714D01*
X147688180Y-115992714D01*
X147592942Y-116040333D01*
X147545323Y-116087952D01*
X148831038Y-116611761D02*
X148735800Y-116659380D01*
X148545323Y-116659380D01*
X148450085Y-116611761D01*
X148402466Y-116516523D01*
X148402466Y-116135571D01*
X148450085Y-116040333D01*
X148545323Y-115992714D01*
X148735800Y-115992714D01*
X148831038Y-116040333D01*
X148878657Y-116135571D01*
X148878657Y-116230809D01*
X148402466Y-116326047D01*
X149307228Y-116659380D02*
X149307228Y-115992714D01*
X149307228Y-116183190D02*
X149354847Y-116087952D01*
X149402466Y-116040333D01*
X149497704Y-115992714D01*
X149592942Y-115992714D01*
X149926276Y-116564142D02*
X149973895Y-116611761D01*
X149926276Y-116659380D01*
X149878657Y-116611761D01*
X149926276Y-116564142D01*
X149926276Y-116659380D01*
X150545323Y-116659380D02*
X150450085Y-116611761D01*
X150402466Y-116564142D01*
X150354847Y-116468904D01*
X150354847Y-116183190D01*
X150402466Y-116087952D01*
X150450085Y-116040333D01*
X150545323Y-115992714D01*
X150688180Y-115992714D01*
X150783419Y-116040333D01*
X150831038Y-116087952D01*
X150878657Y-116183190D01*
X150878657Y-116468904D01*
X150831038Y-116564142D01*
X150783419Y-116611761D01*
X150688180Y-116659380D01*
X150545323Y-116659380D01*
X151307228Y-116659380D02*
X151307228Y-115992714D01*
X151307228Y-116183190D02*
X151354847Y-116087952D01*
X151402466Y-116040333D01*
X151497704Y-115992714D01*
X151592942Y-115992714D01*
X152354847Y-115992714D02*
X152354847Y-116802238D01*
X152307228Y-116897476D01*
X152259609Y-116945095D01*
X152164371Y-116992714D01*
X152021514Y-116992714D01*
X151926276Y-116945095D01*
X152354847Y-116611761D02*
X152259609Y-116659380D01*
X152069133Y-116659380D01*
X151973895Y-116611761D01*
X151926276Y-116564142D01*
X151878657Y-116468904D01*
X151878657Y-116183190D01*
X151926276Y-116087952D01*
X151973895Y-116040333D01*
X152069133Y-115992714D01*
X152259609Y-115992714D01*
X152354847Y-116040333D01*
%TO.C,J2*%
X142152857Y-108938571D02*
X142295714Y-108986190D01*
X142343333Y-109033809D01*
X142390952Y-109129047D01*
X142390952Y-109271904D01*
X142343333Y-109367142D01*
X142295714Y-109414761D01*
X142200476Y-109462380D01*
X141819523Y-109462380D01*
X141819523Y-108462380D01*
X142152857Y-108462380D01*
X142248095Y-108510000D01*
X142295714Y-108557619D01*
X142343333Y-108652857D01*
X142343333Y-108748095D01*
X142295714Y-108843333D01*
X142248095Y-108890952D01*
X142152857Y-108938571D01*
X141819523Y-108938571D01*
X142771904Y-109176666D02*
X143248095Y-109176666D01*
X142676666Y-109462380D02*
X143010000Y-108462380D01*
X143343333Y-109462380D01*
X143533809Y-108462380D02*
X144105238Y-108462380D01*
X143819523Y-109462380D02*
X143819523Y-108462380D01*
X144438571Y-109081428D02*
X145200476Y-109081428D01*
X144819523Y-109462380D02*
X144819523Y-108700476D01*
%TO.C,U1*%
X151757380Y-104235000D02*
X151995476Y-104235000D01*
X151900238Y-104473095D02*
X151995476Y-104235000D01*
X151900238Y-103996904D01*
X152185952Y-104377857D02*
X151995476Y-104235000D01*
X152185952Y-104092142D01*
X151757380Y-104235000D02*
X151995476Y-104235000D01*
X151900238Y-104473095D02*
X151995476Y-104235000D01*
X151900238Y-103996904D01*
X152185952Y-104377857D02*
X151995476Y-104235000D01*
X152185952Y-104092142D01*
%TO.C,*%
%TO.C,J3*%
X157453342Y-111688571D02*
X157596200Y-111736190D01*
X157643819Y-111783809D01*
X157691438Y-111879047D01*
X157691438Y-112021904D01*
X157643819Y-112117142D01*
X157596200Y-112164761D01*
X157500961Y-112212380D01*
X157120009Y-112212380D01*
X157120009Y-111212380D01*
X157453342Y-111212380D01*
X157548580Y-111260000D01*
X157596200Y-111307619D01*
X157643819Y-111402857D01*
X157643819Y-111498095D01*
X157596200Y-111593333D01*
X157548580Y-111640952D01*
X157453342Y-111688571D01*
X157120009Y-111688571D01*
X158072390Y-111926666D02*
X158548580Y-111926666D01*
X157977152Y-112212380D02*
X158310485Y-111212380D01*
X158643819Y-112212380D01*
X158834295Y-111212380D02*
X159405723Y-111212380D01*
X159120009Y-112212380D02*
X159120009Y-111212380D01*
X159500961Y-112307619D02*
X160262866Y-112307619D01*
X161024771Y-111260000D02*
X160929533Y-111212380D01*
X160786676Y-111212380D01*
X160643819Y-111260000D01*
X160548580Y-111355238D01*
X160500961Y-111450476D01*
X160453342Y-111640952D01*
X160453342Y-111783809D01*
X160500961Y-111974285D01*
X160548580Y-112069523D01*
X160643819Y-112164761D01*
X160786676Y-112212380D01*
X160881914Y-112212380D01*
X161024771Y-112164761D01*
X161072390Y-112117142D01*
X161072390Y-111783809D01*
X160881914Y-111783809D01*
X161500961Y-112212380D02*
X161500961Y-111212380D01*
X162072390Y-112212380D01*
X162072390Y-111212380D01*
X162548580Y-112212380D02*
X162548580Y-111212380D01*
X162786676Y-111212380D01*
X162929533Y-111260000D01*
X163024771Y-111355238D01*
X163072390Y-111450476D01*
X163120009Y-111640952D01*
X163120009Y-111783809D01*
X163072390Y-111974285D01*
X163024771Y-112069523D01*
X162929533Y-112164761D01*
X162786676Y-112212380D01*
X162548580Y-112212380D01*
%TO.C,SW1*%
X166608571Y-82335476D02*
X166656190Y-82192619D01*
X166703809Y-82145000D01*
X166799047Y-82097380D01*
X166941904Y-82097380D01*
X167037142Y-82145000D01*
X167084761Y-82192619D01*
X167132380Y-82287857D01*
X167132380Y-82668809D01*
X166132380Y-82668809D01*
X166132380Y-82335476D01*
X166180000Y-82240238D01*
X166227619Y-82192619D01*
X166322857Y-82145000D01*
X166418095Y-82145000D01*
X166513333Y-82192619D01*
X166560952Y-82240238D01*
X166608571Y-82335476D01*
X166608571Y-82668809D01*
X166132380Y-81811666D02*
X166132380Y-81240238D01*
X167132380Y-81525952D02*
X166132380Y-81525952D01*
X167132380Y-80906904D02*
X166132380Y-80906904D01*
X167132380Y-80335476D01*
X166132380Y-80335476D01*
X167227619Y-80097380D02*
X167227619Y-79335476D01*
X166227619Y-79145000D02*
X166180000Y-79097380D01*
X166132380Y-79002142D01*
X166132380Y-78764047D01*
X166180000Y-78668809D01*
X166227619Y-78621190D01*
X166322857Y-78573571D01*
X166418095Y-78573571D01*
X166560952Y-78621190D01*
X167132380Y-79192619D01*
X167132380Y-78573571D01*
%TO.C,SW3*%
X163164780Y-73956704D02*
X162164780Y-73956704D01*
X162164780Y-73575752D01*
X162212400Y-73480514D01*
X162260019Y-73432895D01*
X162355257Y-73385276D01*
X162498114Y-73385276D01*
X162593352Y-73432895D01*
X162640971Y-73480514D01*
X162688590Y-73575752D01*
X162688590Y-73956704D01*
X163164780Y-72385276D02*
X162688590Y-72718609D01*
X163164780Y-72956704D02*
X162164780Y-72956704D01*
X162164780Y-72575752D01*
X162212400Y-72480514D01*
X162260019Y-72432895D01*
X162355257Y-72385276D01*
X162498114Y-72385276D01*
X162593352Y-72432895D01*
X162640971Y-72480514D01*
X162688590Y-72575752D01*
X162688590Y-72956704D01*
X162212400Y-71432895D02*
X162164780Y-71528133D01*
X162164780Y-71670990D01*
X162212400Y-71813847D01*
X162307638Y-71909085D01*
X162402876Y-71956704D01*
X162593352Y-72004323D01*
X162736209Y-72004323D01*
X162926685Y-71956704D01*
X163021923Y-71909085D01*
X163117161Y-71813847D01*
X163164780Y-71670990D01*
X163164780Y-71575752D01*
X163117161Y-71432895D01*
X163069542Y-71385276D01*
X162736209Y-71385276D01*
X162736209Y-71575752D01*
%TO.C,SW2*%
X166608571Y-89955476D02*
X166656190Y-89812619D01*
X166703809Y-89765000D01*
X166799047Y-89717380D01*
X166941904Y-89717380D01*
X167037142Y-89765000D01*
X167084761Y-89812619D01*
X167132380Y-89907857D01*
X167132380Y-90288809D01*
X166132380Y-90288809D01*
X166132380Y-89955476D01*
X166180000Y-89860238D01*
X166227619Y-89812619D01*
X166322857Y-89765000D01*
X166418095Y-89765000D01*
X166513333Y-89812619D01*
X166560952Y-89860238D01*
X166608571Y-89955476D01*
X166608571Y-90288809D01*
X166132380Y-89431666D02*
X166132380Y-88860238D01*
X167132380Y-89145952D02*
X166132380Y-89145952D01*
X167132380Y-88526904D02*
X166132380Y-88526904D01*
X167132380Y-87955476D01*
X166132380Y-87955476D01*
X167227619Y-87717380D02*
X167227619Y-86955476D01*
X167132380Y-86193571D02*
X167132380Y-86765000D01*
X167132380Y-86479285D02*
X166132380Y-86479285D01*
X166275238Y-86574523D01*
X166370476Y-86669761D01*
X166418095Y-86765000D01*
%TO.C,SW4*%
X140457419Y-72842380D02*
X140124085Y-72366190D01*
X139885990Y-72842380D02*
X139885990Y-71842380D01*
X140266942Y-71842380D01*
X140362180Y-71890000D01*
X140409800Y-71937619D01*
X140457419Y-72032857D01*
X140457419Y-72175714D01*
X140409800Y-72270952D01*
X140362180Y-72318571D01*
X140266942Y-72366190D01*
X139885990Y-72366190D01*
X140885990Y-72318571D02*
X141219323Y-72318571D01*
X141362180Y-72842380D02*
X140885990Y-72842380D01*
X140885990Y-71842380D01*
X141362180Y-71842380D01*
X141743133Y-72794761D02*
X141885990Y-72842380D01*
X142124085Y-72842380D01*
X142219323Y-72794761D01*
X142266942Y-72747142D01*
X142314561Y-72651904D01*
X142314561Y-72556666D01*
X142266942Y-72461428D01*
X142219323Y-72413809D01*
X142124085Y-72366190D01*
X141933609Y-72318571D01*
X141838371Y-72270952D01*
X141790752Y-72223333D01*
X141743133Y-72128095D01*
X141743133Y-72032857D01*
X141790752Y-71937619D01*
X141838371Y-71890000D01*
X141933609Y-71842380D01*
X142171704Y-71842380D01*
X142314561Y-71890000D01*
X142743133Y-72318571D02*
X143076466Y-72318571D01*
X143219323Y-72842380D02*
X142743133Y-72842380D01*
X142743133Y-71842380D01*
X143219323Y-71842380D01*
X143505038Y-71842380D02*
X144076466Y-71842380D01*
X143790752Y-72842380D02*
X143790752Y-71842380D01*
D11*
%TO.C,J5*%
X161230000Y-97165000D02*
X161230000Y-104845000D01*
X161230000Y-95895000D02*
X161230000Y-94565000D01*
X161230000Y-104845000D02*
X163890000Y-104845000D01*
X161230000Y-97165000D02*
X163890000Y-97165000D01*
X163890000Y-97165000D02*
X163890000Y-104845000D01*
X161230000Y-94565000D02*
X162560000Y-94565000D01*
%TO.C,C4*%
X143385000Y-88759420D02*
X143385000Y-89040580D01*
X142365000Y-88759420D02*
X142365000Y-89040580D01*
%TO.C,F2*%
X155015000Y-110866422D02*
X155015000Y-111383578D01*
X153595000Y-110866422D02*
X153595000Y-111383578D01*
%TO.C,J6*%
X157825000Y-112255000D02*
X157425000Y-112705000D01*
X162575000Y-118305000D02*
X162575000Y-115505000D01*
X154875000Y-118305000D02*
X154875000Y-115505000D01*
X162575000Y-115505000D02*
X162875000Y-115505000D01*
X162875000Y-115505000D02*
X162875000Y-113955000D01*
X154575000Y-115505000D02*
X154575000Y-113955000D01*
X157425000Y-112705000D02*
X157025000Y-112255000D01*
X154575000Y-115505000D02*
X154875000Y-115505000D01*
X157025000Y-112255000D02*
X157825000Y-112255000D01*
%TO.C,R19*%
X146797500Y-102632742D02*
X146797500Y-103107258D01*
X147842500Y-102632742D02*
X147842500Y-103107258D01*
%TO.C,J1*%
X155565000Y-93405000D02*
X147885000Y-93405000D01*
X156835000Y-90745000D02*
X158165000Y-90745000D01*
X155565000Y-90745000D02*
X147885000Y-90745000D01*
X147885000Y-90745000D02*
X147885000Y-93405000D01*
X155565000Y-90745000D02*
X155565000Y-93405000D01*
X158165000Y-90745000D02*
X158165000Y-92075000D01*
%TO.C,U2*%
X147035000Y-88955000D02*
X144915000Y-88955000D01*
X161155000Y-88955000D02*
X159035000Y-88955000D01*
X144915000Y-88955000D02*
X144915000Y-88335000D01*
X161155000Y-88335000D02*
X161155000Y-88955000D01*
X144915000Y-72335000D02*
X144915000Y-64715000D01*
X144915000Y-72335000D02*
X144305000Y-72335000D01*
X161155000Y-64715000D02*
X161155000Y-72335000D01*
X144915000Y-64715000D02*
X161155000Y-64715000D01*
%TO.C,C3*%
X146270000Y-91220000D02*
X146270000Y-92920000D01*
X140197500Y-91982500D02*
X140197500Y-92607500D01*
X139885000Y-92295000D02*
X140510000Y-92295000D01*
X140750000Y-95675563D02*
X140750000Y-95040000D01*
X141814437Y-91220000D02*
X146270000Y-91220000D01*
X146270000Y-96740000D02*
X146270000Y-95040000D01*
X140750000Y-92284437D02*
X140750000Y-92920000D01*
X140750000Y-95675563D02*
X141814437Y-96740000D01*
X141814437Y-96740000D02*
X146270000Y-96740000D01*
X140750000Y-92284437D02*
X141814437Y-91220000D01*
%TO.C,J2*%
X142180000Y-107950000D02*
X144840000Y-107950000D01*
X142180000Y-106680000D02*
X142180000Y-105350000D01*
X144840000Y-107950000D02*
X144840000Y-108010000D01*
X142180000Y-108010000D02*
X144840000Y-108010000D01*
X142180000Y-107950000D02*
X142180000Y-108010000D01*
X142180000Y-105350000D02*
X143510000Y-105350000D01*
%TO.C,C2*%
X152540580Y-107440000D02*
X152259420Y-107440000D01*
X152540580Y-108460000D02*
X152259420Y-108460000D01*
%TO.C,C1*%
X155990000Y-109645563D02*
X157054437Y-110710000D01*
X155990000Y-109645563D02*
X155990000Y-109010000D01*
X155437500Y-105952500D02*
X155437500Y-106577500D01*
X157054437Y-105190000D02*
X161510000Y-105190000D01*
X161510000Y-110710000D02*
X161510000Y-109010000D01*
X155125000Y-106265000D02*
X155750000Y-106265000D01*
X161510000Y-105190000D02*
X161510000Y-106890000D01*
X155990000Y-106254437D02*
X157054437Y-105190000D01*
X157054437Y-110710000D02*
X161510000Y-110710000D01*
X155990000Y-106254437D02*
X155990000Y-106890000D01*
%TO.C,R18*%
X149747500Y-103107258D02*
X149747500Y-102632742D01*
X148702500Y-103107258D02*
X148702500Y-102632742D01*
%TO.C,R17*%
X167603700Y-81237858D02*
X167603700Y-80763342D01*
X166558700Y-81237858D02*
X166558700Y-80763342D01*
D12*
%TO.C,U4*%
X170895000Y-97710000D02*
X170895000Y-97860000D01*
X170895000Y-100410000D02*
X170745000Y-100410000D01*
X170745000Y-97710000D02*
X170895000Y-97710000D01*
X168195000Y-97860000D02*
X168195000Y-97610000D01*
X168195000Y-100420000D02*
X168345000Y-100420000D01*
X168195000Y-100410000D02*
X168195000Y-100260000D01*
X170895000Y-100410000D02*
X170895000Y-100260000D01*
D11*
%TO.C,JP1*%
X171112400Y-104327200D02*
X167012400Y-104327200D01*
X167462400Y-104827200D02*
X168062400Y-104827200D01*
X167012400Y-102327200D02*
X171112400Y-102327200D01*
X167012400Y-104327200D02*
X167012400Y-102327200D01*
X167762400Y-104527200D02*
X167462400Y-104827200D01*
X171112400Y-102327200D02*
X171112400Y-104327200D01*
X167762400Y-104527200D02*
X168062400Y-104827200D01*
%TO.C,C8*%
X167743600Y-97674820D02*
X167743600Y-97955980D01*
X166723600Y-97674820D02*
X166723600Y-97955980D01*
%TO.C,R15*%
X158637500Y-100092742D02*
X158637500Y-100567258D01*
X157592500Y-100092742D02*
X157592500Y-100567258D01*
%TO.C,U1*%
X152628600Y-103911400D02*
X152831800Y-103911400D01*
X155981400Y-103911400D02*
X155981400Y-100558600D01*
X155778200Y-103911400D02*
X155981400Y-103911400D01*
X152628600Y-100558600D02*
X152628600Y-103911400D01*
X152831800Y-100558600D02*
X152628600Y-100558600D01*
X155981400Y-100558600D02*
X155778200Y-100558600D01*
D12*
X153113740Y-98844100D02*
X153494740Y-98844100D01*
X153494740Y-98844100D02*
X153494740Y-99098100D01*
X153494740Y-99098100D02*
X153113740Y-99098100D01*
X153113740Y-99098100D02*
X153113740Y-98844100D01*
G36*
X153494740Y-99098100D02*
G01*
X153113740Y-99098100D01*
X153113740Y-98844100D01*
X153494740Y-98844100D01*
X153494740Y-99098100D01*
G37*
X153494740Y-99098100D02*
X153113740Y-99098100D01*
X153113740Y-98844100D01*
X153494740Y-98844100D01*
X153494740Y-99098100D01*
D11*
%TO.C,L1*%
X154142221Y-96010000D02*
X154467779Y-96010000D01*
X154142221Y-97030000D02*
X154467779Y-97030000D01*
%TO.C,J7*%
X163008000Y-84616600D02*
X165668000Y-84616600D01*
X163008000Y-71796600D02*
X164338000Y-71796600D01*
X163008000Y-74396600D02*
X163008000Y-84616600D01*
X163008000Y-73126600D02*
X163008000Y-71796600D01*
X163008000Y-74396600D02*
X165668000Y-74396600D01*
X165668000Y-74396600D02*
X165668000Y-84616600D01*
%TO.C,R14*%
X158637500Y-96917742D02*
X158637500Y-97392258D01*
X157592500Y-96917742D02*
X157592500Y-97392258D01*
%TO.C,Q1*%
X151420000Y-97790000D02*
X151420000Y-98440000D01*
X148300000Y-97790000D02*
X148300000Y-97140000D01*
X148300000Y-97790000D02*
X148300000Y-98440000D01*
X151420000Y-97790000D02*
X151420000Y-96115000D01*
%TO.C,J4*%
X142604800Y-73056600D02*
X139944800Y-73056600D01*
X142604800Y-80736600D02*
X142604800Y-73056600D01*
X142604800Y-82006600D02*
X142604800Y-83336600D01*
X139944800Y-80736600D02*
X139944800Y-73056600D01*
X142604800Y-80736600D02*
X139944800Y-80736600D01*
X142604800Y-83336600D02*
X141274800Y-83336600D01*
%TO.C,C5*%
X169765000Y-110280563D02*
X168700563Y-111345000D01*
X170630000Y-110270000D02*
X170005000Y-110270000D01*
X169765000Y-110280563D02*
X169765000Y-109645000D01*
X170317500Y-110582500D02*
X170317500Y-109957500D01*
X169765000Y-106889437D02*
X168700563Y-105825000D01*
X168700563Y-111345000D02*
X164245000Y-111345000D01*
X168700563Y-105825000D02*
X164245000Y-105825000D01*
X164245000Y-111345000D02*
X164245000Y-109645000D01*
X169765000Y-106889437D02*
X169765000Y-107525000D01*
X164245000Y-105825000D02*
X164245000Y-107525000D01*
%TO.C,J3*%
X163770000Y-113030000D02*
X163770000Y-111700000D01*
X166430000Y-114300000D02*
X166430000Y-114360000D01*
X163770000Y-114300000D02*
X166430000Y-114300000D01*
X163770000Y-114360000D02*
X166430000Y-114360000D01*
X163770000Y-111700000D02*
X165100000Y-111700000D01*
X163770000Y-114300000D02*
X163770000Y-114360000D01*
%TD*%
M02*
