%TF.GenerationSoftware,KiCad,Pcbnew,(6.0.0)*%
%TF.CreationDate,2022-01-25T23:20:27+01:00*%
%TF.ProjectId,esp-temp-thingi-pcb,6573702d-7465-46d7-902d-7468696e6769,rev?*%
%TF.SameCoordinates,Original*%
%TF.FileFunction,Copper,L2,Bot*%
%TF.FilePolarity,Positive*%
%FSLAX46Y46*%
G04 Gerber Fmt 4.6, Leading zero omitted, Abs format (unit mm)*
G04 Created by KiCad (PCBNEW (6.0.0)) date 2022-01-25 23:20:27*
%MOMM*%
%LPD*%
G01*
G04 APERTURE LIST*
G04 Aperture macros list*
%AMRoundRect*
0 Rectangle with rounded corners*
0 $1 Rounding radius*
0 $2 $3 $4 $5 $6 $7 $8 $9 X,Y pos of 4 corners*
0 Add a 4 corners polygon primitive as box body*
4,1,4,$2,$3,$4,$5,$6,$7,$8,$9,$2,$3,0*
0 Add four circle primitives for the rounded corners*
1,1,$1+$1,$2,$3*
1,1,$1+$1,$4,$5*
1,1,$1+$1,$6,$7*
1,1,$1+$1,$8,$9*
0 Add four rect primitives between the rounded corners*
20,1,$1+$1,$2,$3,$4,$5,0*
20,1,$1+$1,$4,$5,$6,$7,0*
20,1,$1+$1,$6,$7,$8,$9,0*
20,1,$1+$1,$8,$9,$2,$3,0*%
G04 Aperture macros list end*
%TA.AperFunction,ComponentPad*%
%ADD10R,1.700000X1.700000*%
%TD*%
%TA.AperFunction,ComponentPad*%
%ADD11O,1.700000X1.700000*%
%TD*%
%TA.AperFunction,ComponentPad*%
%ADD12O,1.350000X1.700000*%
%TD*%
%TA.AperFunction,ComponentPad*%
%ADD13O,1.100000X1.500000*%
%TD*%
%TA.AperFunction,ComponentPad*%
%ADD14C,5.000000*%
%TD*%
%TA.AperFunction,SMDPad,CuDef*%
%ADD15R,1.000000X1.550000*%
%TD*%
%TA.AperFunction,SMDPad,CuDef*%
%ADD16RoundRect,0.243750X-0.456250X0.243750X-0.456250X-0.243750X0.456250X-0.243750X0.456250X0.243750X0*%
%TD*%
%TA.AperFunction,SMDPad,CuDef*%
%ADD17R,1.550000X1.000000*%
%TD*%
%TA.AperFunction,SMDPad,CuDef*%
%ADD18RoundRect,0.200000X0.275000X-0.200000X0.275000X0.200000X-0.275000X0.200000X-0.275000X-0.200000X0*%
%TD*%
%TA.AperFunction,SMDPad,CuDef*%
%ADD19RoundRect,0.200000X-0.275000X0.200000X-0.275000X-0.200000X0.275000X-0.200000X0.275000X0.200000X0*%
%TD*%
%TA.AperFunction,SMDPad,CuDef*%
%ADD20RoundRect,0.225000X0.250000X-0.225000X0.250000X0.225000X-0.250000X0.225000X-0.250000X-0.225000X0*%
%TD*%
%TA.AperFunction,SMDPad,CuDef*%
%ADD21R,2.000000X1.500000*%
%TD*%
%TA.AperFunction,SMDPad,CuDef*%
%ADD22R,2.000000X3.800000*%
%TD*%
%TA.AperFunction,ViaPad*%
%ADD23C,0.800000*%
%TD*%
%TA.AperFunction,Conductor*%
%ADD24C,1.000000*%
%TD*%
%TA.AperFunction,Conductor*%
%ADD25C,0.400000*%
%TD*%
%TA.AperFunction,Conductor*%
%ADD26C,0.500000*%
%TD*%
%TA.AperFunction,Conductor*%
%ADD27C,0.250000*%
%TD*%
G04 APERTURE END LIST*
D10*
%TO.P,J5,1,Pin_1*%
%TO.N,+3V3*%
X162560000Y-95895000D03*
D11*
%TO.P,J5,2,Pin_2*%
%TO.N,SDI*%
X162560000Y-98435000D03*
%TO.P,J5,3,Pin_3*%
%TO.N,SCK*%
X162560000Y-100975000D03*
%TO.P,J5,4,Pin_4*%
%TO.N,GND*%
X162560000Y-103515000D03*
%TD*%
D12*
%TO.P,J6,6,Shield*%
%TO.N,GND*%
X155995000Y-116685000D03*
D13*
X161145000Y-113685000D03*
X156305000Y-113685000D03*
D12*
X161455000Y-116685000D03*
%TD*%
D10*
%TO.P,J1,1,Pin_1*%
%TO.N,Net-(J1-Pad1)*%
X156835000Y-92075000D03*
D11*
%TO.P,J1,2,Pin_2*%
%TO.N,Net-(J1-Pad2)*%
X154295000Y-92075000D03*
%TO.P,J1,3,Pin_3*%
%TO.N,BAT_CHARGE*%
X151755000Y-92075000D03*
%TO.P,J1,4,Pin_4*%
%TO.N,Net-(J1-Pad4)*%
X149215000Y-92075000D03*
%TD*%
D10*
%TO.P,J2,1,Pin_1*%
%TO.N,Net-(F1-Pad2)*%
X143510000Y-106680000D03*
%TD*%
D14*
%TO.P,REF\u002A\u002A,1*%
%TO.N,N/C*%
X169113200Y-73964800D03*
%TD*%
D10*
%TO.P,J7,1,Pin_1*%
%TO.N,GND*%
X164338000Y-73126600D03*
D11*
%TO.P,J7,2,Pin_2*%
%TO.N,CTS*%
X164338000Y-75666600D03*
%TO.P,J7,3,Pin_3*%
%TO.N,unconnected-(J7-Pad3)*%
X164338000Y-78206600D03*
%TO.P,J7,4,Pin_4*%
%TO.N,TXD*%
X164338000Y-80746600D03*
%TO.P,J7,5,Pin_5*%
%TO.N,RXD*%
X164338000Y-83286600D03*
%TD*%
D10*
%TO.P,J4,1,Pin_1*%
%TO.N,Net-(J4-Pad1)*%
X141274800Y-82006600D03*
D11*
%TO.P,J4,2,Pin_2*%
%TO.N,Net-(J4-Pad2)*%
X141274800Y-79466600D03*
%TO.P,J4,3,Pin_3*%
%TO.N,Net-(J4-Pad3)*%
X141274800Y-76926600D03*
%TO.P,J4,4,Pin_4*%
%TO.N,Net-(J4-Pad4)*%
X141274800Y-74386600D03*
%TD*%
D14*
%TO.P,,1*%
%TO.N,N/C*%
X168910000Y-115570000D03*
%TD*%
D10*
%TO.P,J3,1,Pin_1*%
%TO.N,GND*%
X165100000Y-113030000D03*
%TD*%
D15*
%TO.P,SW1,1,1*%
%TO.N,BTN_2*%
X171030000Y-78020000D03*
X171030000Y-83270000D03*
%TO.P,SW1,2,2*%
%TO.N,GND*%
X169330000Y-83270000D03*
X169330000Y-78020000D03*
%TD*%
D16*
%TO.P,F1,1*%
%TO.N,+BATT*%
X146761200Y-106299000D03*
%TO.P,F1,2*%
%TO.N,Net-(F1-Pad2)*%
X146761200Y-108174000D03*
%TD*%
D17*
%TO.P,SW3,1,1*%
%TO.N,BOOT0*%
X159470000Y-72116200D03*
X154220000Y-72116200D03*
%TO.P,SW3,2,2*%
%TO.N,GND*%
X154220000Y-73816200D03*
X159470000Y-73816200D03*
%TD*%
D18*
%TO.P,R9,1*%
%TO.N,+BATT*%
X145415000Y-103695000D03*
%TO.P,R9,2*%
%TO.N,Net-(R10-Pad1)*%
X145415000Y-102045000D03*
%TD*%
D19*
%TO.P,R12,1*%
%TO.N,Net-(R12-Pad1)*%
X154355800Y-106998000D03*
%TO.P,R12,2*%
%TO.N,GND*%
X154355800Y-108648000D03*
%TD*%
%TO.P,R20,1*%
%TO.N,+3V3*%
X154940000Y-79185000D03*
%TO.P,R20,2*%
%TO.N,SDI*%
X154940000Y-80835000D03*
%TD*%
D18*
%TO.P,R8,1*%
%TO.N,Net-(Q1-Pad2)*%
X147320000Y-97980000D03*
%TO.P,R8,2*%
%TO.N,GND*%
X147320000Y-96330000D03*
%TD*%
D15*
%TO.P,SW2,1,1*%
%TO.N,BTN_1*%
X171030000Y-85640000D03*
X171030000Y-90890000D03*
%TO.P,SW2,2,2*%
%TO.N,GND*%
X169330000Y-90890000D03*
X169330000Y-85640000D03*
%TD*%
D19*
%TO.P,R21,1*%
%TO.N,+3V3*%
X149225000Y-79185000D03*
%TO.P,R21,2*%
%TO.N,SCK*%
X149225000Y-80835000D03*
%TD*%
D17*
%TO.P,SW4,1,1*%
%TO.N,RST*%
X151215000Y-72098800D03*
X145965000Y-72098800D03*
%TO.P,SW4,2,2*%
%TO.N,GND*%
X145965000Y-73798800D03*
X151215000Y-73798800D03*
%TD*%
D19*
%TO.P,R16,1*%
%TO.N,+3V3*%
X167106600Y-83249000D03*
%TO.P,R16,2*%
%TO.N,BTN_1*%
X167106600Y-84899000D03*
%TD*%
D18*
%TO.P,R7,1*%
%TO.N,+3V3*%
X151130000Y-77660000D03*
%TO.P,R7,2*%
%TO.N,RST*%
X151130000Y-76010000D03*
%TD*%
%TO.P,R10,1*%
%TO.N,Net-(R10-Pad1)*%
X145415000Y-101790000D03*
%TO.P,R10,2*%
%TO.N,GND*%
X145415000Y-100140000D03*
%TD*%
D20*
%TO.P,C7,1*%
%TO.N,+3V3*%
X152400000Y-113170000D03*
%TO.P,C7,2*%
%TO.N,GND*%
X152400000Y-111620000D03*
%TD*%
D19*
%TO.P,R5,1*%
%TO.N,EN_BUCK_MC*%
X151130000Y-95060000D03*
%TO.P,R5,2*%
%TO.N,Net-(Q1-Pad1)*%
X151130000Y-96710000D03*
%TD*%
D18*
%TO.P,R6,1*%
%TO.N,+5V*%
X152755600Y-108648000D03*
%TO.P,R6,2*%
%TO.N,Net-(R6-Pad2)*%
X152755600Y-106998000D03*
%TD*%
D20*
%TO.P,C6,1*%
%TO.N,+5V*%
X152400000Y-116345000D03*
%TO.P,C6,2*%
%TO.N,GND*%
X152400000Y-114795000D03*
%TD*%
D18*
%TO.P,R2,1*%
%TO.N,Net-(R1-Pad2)*%
X151130000Y-85915000D03*
%TO.P,R2,2*%
%TO.N,GND*%
X151130000Y-84265000D03*
%TD*%
D19*
%TO.P,R11,1*%
%TO.N,+3V3*%
X156845000Y-79185000D03*
%TO.P,R11,2*%
%TO.N,BOOT0*%
X156845000Y-80835000D03*
%TD*%
D18*
%TO.P,R4,1*%
%TO.N,+BATT*%
X147320000Y-103695000D03*
%TO.P,R4,2*%
%TO.N,EN_BUCK*%
X147320000Y-102045000D03*
%TD*%
D19*
%TO.P,R1,1*%
%TO.N,+3V3*%
X149225000Y-84265000D03*
%TO.P,R1,2*%
%TO.N,Net-(R1-Pad2)*%
X149225000Y-85915000D03*
%TD*%
D21*
%TO.P,U3,1,GND*%
%TO.N,GND*%
X149835000Y-111365000D03*
D22*
%TO.P,U3,2,VO*%
%TO.N,+3V3*%
X143535000Y-113665000D03*
D21*
X149835000Y-113665000D03*
%TO.P,U3,3,VI*%
%TO.N,+5V*%
X149835000Y-115965000D03*
%TD*%
D18*
%TO.P,R13,1*%
%TO.N,Net-(J4-Pad1)*%
X153035000Y-85915000D03*
%TO.P,R13,2*%
%TO.N,GND*%
X153035000Y-84265000D03*
%TD*%
%TO.P,R3,1*%
%TO.N,+3V3*%
X149225000Y-77660000D03*
%TO.P,R3,2*%
%TO.N,Net-(R3-Pad2)*%
X149225000Y-76010000D03*
%TD*%
D23*
%TO.N,+5V*%
X152550100Y-110187500D03*
X148132800Y-116306600D03*
%TO.N,GND*%
X139928600Y-100888800D03*
X170764200Y-111912400D03*
X157861000Y-115646200D03*
X151942800Y-103352600D03*
X159613600Y-97713800D03*
X139928600Y-102362000D03*
X151917400Y-102057200D03*
X163449000Y-116052600D03*
X164896800Y-105943400D03*
X139954000Y-112039400D03*
X147040600Y-92252800D03*
X169265600Y-105333800D03*
X142925800Y-103530400D03*
X157861000Y-117017800D03*
X153670000Y-102870000D03*
X150672800Y-101701600D03*
X165100000Y-91211400D03*
X158750000Y-115646200D03*
X159232600Y-94691200D03*
X153873200Y-116433600D03*
X159588200Y-102362000D03*
X149199600Y-107772200D03*
X159588200Y-100888800D03*
X153797000Y-115443000D03*
X142392400Y-117170200D03*
X157099000Y-103962200D03*
X162788600Y-105892600D03*
X151155400Y-102666800D03*
X139928600Y-104140000D03*
X159232600Y-93395800D03*
X149733000Y-111531400D03*
X165100000Y-92049600D03*
X150926800Y-104038400D03*
X148818600Y-106654600D03*
X171094400Y-101600000D03*
X159613600Y-99187000D03*
X154940000Y-101600000D03*
X159639000Y-117017800D03*
X151917400Y-101041200D03*
X140055600Y-114477800D03*
X145669000Y-110718600D03*
X143484600Y-95732600D03*
X140716000Y-116230400D03*
X140004800Y-95681800D03*
X169443400Y-90601800D03*
X167259000Y-98602800D03*
X140004800Y-107873800D03*
X158750000Y-117017800D03*
X142925800Y-102285800D03*
X151968200Y-104343200D03*
X145973800Y-109677200D03*
X170256200Y-105333800D03*
X139928600Y-105537000D03*
X142900400Y-104444800D03*
X167309800Y-99974400D03*
X142925800Y-100990400D03*
X165074600Y-117678200D03*
X149072600Y-111582200D03*
X163652200Y-105867200D03*
X162204400Y-110032800D03*
X143027400Y-97282000D03*
X166166800Y-103098600D03*
X158216600Y-103987600D03*
X160629600Y-110032800D03*
X170688000Y-106705400D03*
X143941800Y-117068600D03*
X167665400Y-112090200D03*
X161010600Y-105867200D03*
X168681400Y-101574600D03*
X153670000Y-101600000D03*
X142976600Y-98298000D03*
X147167600Y-117779800D03*
X158978600Y-109982000D03*
X156413200Y-84074000D03*
X158267400Y-102387400D03*
X153746200Y-114655600D03*
X154940000Y-102870000D03*
X150114000Y-108686600D03*
X144246600Y-92100400D03*
X143281400Y-91490800D03*
X165100000Y-92887800D03*
X139954000Y-110032800D03*
X152120600Y-117678200D03*
X159512000Y-105841800D03*
X167233600Y-101117400D03*
X151104600Y-100457000D03*
X144780000Y-117779800D03*
X145770600Y-91694000D03*
X143357600Y-109524800D03*
X166039800Y-106502200D03*
X163372800Y-117703600D03*
X157073600Y-102387400D03*
X157759400Y-94767400D03*
X139979400Y-97434400D03*
X153898600Y-117551200D03*
X165049200Y-116078000D03*
X152196800Y-83032600D03*
X142646400Y-92329000D03*
X169330000Y-84441400D03*
X145059400Y-97358200D03*
X142951200Y-99542600D03*
X159588200Y-103962200D03*
X156641800Y-86410800D03*
X157251400Y-110007400D03*
X143967200Y-97358200D03*
X150647400Y-111556800D03*
X159639000Y-115646200D03*
X163550600Y-91795600D03*
X143256000Y-110515400D03*
X149123400Y-117652800D03*
X139979400Y-99161600D03*
X145491200Y-95885000D03*
%TO.N,+3V3*%
X166166800Y-82321400D03*
X169189400Y-110185200D03*
X142011400Y-114249200D03*
X143665000Y-87335000D03*
%TO.N,+BATT*%
X149123400Y-104470200D03*
%TO.N,BAT_CHARGE*%
X156362400Y-98755200D03*
%TO.N,SDI*%
X158673800Y-83362800D03*
X170027600Y-97155000D03*
%TO.N,SCK*%
X170764200Y-98983800D03*
X150444200Y-80797400D03*
%TO.N,Net-(J4-Pad1)*%
X154190100Y-85335000D03*
%TO.N,EN_BUCK*%
X149860000Y-97790000D03*
X148513800Y-100025200D03*
X153898600Y-97586800D03*
%TO.N,Net-(R1-Pad2)*%
X148513800Y-87198200D03*
%TO.N,Net-(R3-Pad2)*%
X147828000Y-76631800D03*
%TO.N,EN_BUCK_MC*%
X150901400Y-93903800D03*
%TO.N,Net-(R6-Pad2)*%
X154533600Y-105994200D03*
%TO.N,RST*%
X150368000Y-75285600D03*
X148756000Y-72098800D03*
%TO.N,Net-(R10-Pad1)*%
X154895158Y-97663458D03*
%TO.N,BOOT0*%
X157657800Y-81788000D03*
X156946600Y-72923400D03*
%TO.N,Net-(R12-Pad1)*%
X155397200Y-106527600D03*
%TO.N,BTN_1*%
X158978600Y-80284500D03*
%TO.N,BTN_2*%
X158394400Y-77343000D03*
X171030000Y-80760200D03*
X166547800Y-79197200D03*
%TO.N,BAT*%
X145161000Y-90424000D03*
X143891000Y-75336400D03*
%TO.N,Net-(Q1-Pad1)*%
X149936200Y-95275400D03*
%TO.N,Net-(Q1-Pad2)*%
X148869400Y-98437100D03*
%TD*%
D24*
%TO.N,+5V*%
X150215000Y-116345000D02*
X149835000Y-115965000D01*
X152755600Y-109982000D02*
X152550100Y-110187500D01*
X152755600Y-108648000D02*
X152755600Y-109982000D01*
X152400000Y-116345000D02*
X150215000Y-116345000D01*
X148132800Y-116306600D02*
X149493400Y-116306600D01*
X149493400Y-116306600D02*
X149835000Y-115965000D01*
%TO.N,GND*%
X158013400Y-74295000D02*
X158492200Y-73816200D01*
X152159200Y-83070200D02*
X152196800Y-83032600D01*
X164338000Y-73475259D02*
X165913689Y-75050948D01*
X168596400Y-78020000D02*
X169330000Y-78020000D01*
X169330000Y-84441400D02*
X169330000Y-85640000D01*
X165913689Y-75050948D02*
X165913689Y-75337289D01*
X153035000Y-84265000D02*
X152159200Y-84265000D01*
X145965000Y-73798800D02*
X151215000Y-73798800D01*
X169330000Y-90715200D02*
X169443400Y-90601800D01*
X158492200Y-73816200D02*
X159470000Y-73816200D01*
X154220000Y-73816200D02*
X155553400Y-73816200D01*
X156032200Y-74295000D02*
X158013400Y-74295000D01*
X156413200Y-86182200D02*
X156641800Y-86410800D01*
X159470000Y-73816200D02*
X163648400Y-73816200D01*
X163648400Y-73816200D02*
X164338000Y-73126600D01*
X165913689Y-75337289D02*
X168596400Y-78020000D01*
X154202600Y-73798800D02*
X154220000Y-73816200D01*
X169330000Y-83270000D02*
X169330000Y-84441400D01*
X151215000Y-73798800D02*
X154202600Y-73798800D01*
X155553400Y-73816200D02*
X156032200Y-74295000D01*
X156413200Y-84074000D02*
X156413200Y-86182200D01*
X164338000Y-73126600D02*
X164338000Y-73475259D01*
X152159200Y-84265000D02*
X151130000Y-84265000D01*
X152159200Y-84265000D02*
X152159200Y-83070200D01*
X169330000Y-78020000D02*
X169330000Y-83270000D01*
X169330000Y-90890000D02*
X169330000Y-90715200D01*
%TO.N,+3V3*%
X149225000Y-79185000D02*
X149127887Y-79185000D01*
X164490400Y-110185200D02*
X169189400Y-110185200D01*
X148386800Y-112903000D02*
X148742400Y-112903000D01*
X142950800Y-114249200D02*
X143535000Y-113665000D01*
X149127887Y-79185000D02*
X148050480Y-80262407D01*
X149225000Y-83286600D02*
X149225000Y-84265000D01*
D25*
X165709600Y-82092800D02*
X162687000Y-81965800D01*
D24*
X149225000Y-84265000D02*
X146735000Y-84265000D01*
X146735000Y-84265000D02*
X143665000Y-87335000D01*
D26*
X165125400Y-79476600D02*
X166166800Y-80441800D01*
D24*
X149225000Y-79185000D02*
X149225000Y-77660000D01*
X149835000Y-113665000D02*
X151905000Y-113665000D01*
X162788600Y-111887000D02*
X164490400Y-110185200D01*
X167106600Y-83249000D02*
X167094400Y-83249000D01*
X148259800Y-113030000D02*
X148386800Y-112903000D01*
X155244800Y-111887000D02*
X162788600Y-111887000D01*
X148050480Y-82112080D02*
X149225000Y-83286600D01*
X143535000Y-113665000D02*
X149835000Y-113665000D01*
D27*
X160381711Y-79381111D02*
X160185600Y-79185000D01*
D24*
X151905000Y-113665000D02*
X152400000Y-113170000D01*
X151130000Y-77660000D02*
X153415000Y-77660000D01*
X143535000Y-113665000D02*
X143535000Y-114401200D01*
X152400000Y-113170000D02*
X153961800Y-113170000D01*
X160185600Y-79185000D02*
X162687000Y-81965800D01*
D25*
X165125400Y-79476600D02*
X160381711Y-79381111D01*
D24*
X144068800Y-114503200D02*
X148183600Y-114503200D01*
X143535000Y-113665000D02*
X143535000Y-113335200D01*
X153415000Y-77660000D02*
X154940000Y-79185000D01*
X153961800Y-113170000D02*
X155244800Y-111887000D01*
X148183600Y-114503200D02*
X148386800Y-114300000D01*
X144195800Y-112674400D02*
X147904200Y-112674400D01*
X143535000Y-113969400D02*
X144068800Y-114503200D01*
X144297400Y-115163600D02*
X147269200Y-115163600D01*
X149225000Y-77660000D02*
X151130000Y-77660000D01*
X147904200Y-112674400D02*
X148259800Y-113030000D01*
X167094400Y-83249000D02*
X166166800Y-82321400D01*
X156845000Y-79185000D02*
X160185600Y-79185000D01*
D26*
X166166800Y-80441800D02*
X166166800Y-82321400D01*
D24*
X143535000Y-113665000D02*
X143535000Y-113969400D01*
X143535000Y-114401200D02*
X144297400Y-115163600D01*
X154940000Y-79185000D02*
X156845000Y-79185000D01*
X143535000Y-113335200D02*
X144195800Y-112674400D01*
D27*
X166166800Y-82321400D02*
X165709600Y-82092800D01*
D24*
X142011400Y-114249200D02*
X142950800Y-114249200D01*
X148050480Y-80262407D02*
X148050480Y-82112080D01*
%TO.N,+BATT*%
X148348200Y-103695000D02*
X149123400Y-104470200D01*
X147320000Y-103695000D02*
X148348200Y-103695000D01*
X146761200Y-104253800D02*
X147320000Y-103695000D01*
X146761200Y-106299000D02*
X146761200Y-104253800D01*
X145415000Y-103695000D02*
X147320000Y-103695000D01*
%TO.N,Net-(F1-Pad2)*%
X143510000Y-106680000D02*
X143510000Y-106959400D01*
X143510000Y-106959400D02*
X144724600Y-108174000D01*
X144724600Y-108174000D02*
X146761200Y-108174000D01*
D27*
%TO.N,BAT_CHARGE*%
X151755000Y-93665200D02*
X151755000Y-92075000D01*
X152323800Y-94234000D02*
X151755000Y-93665200D01*
X156362400Y-98755200D02*
X156362400Y-95402400D01*
X156362400Y-95402400D02*
X155194000Y-94234000D01*
X155194000Y-94234000D02*
X152323800Y-94234000D01*
%TO.N,SDI*%
X167360600Y-95681800D02*
X165773100Y-94094300D01*
X162560000Y-98435000D02*
X163931600Y-97063400D01*
X163931600Y-94132400D02*
X163893500Y-94094300D01*
X168376600Y-95681800D02*
X167360600Y-95681800D01*
X163893500Y-94094300D02*
X159080200Y-89281000D01*
X157467800Y-83362800D02*
X154940000Y-80835000D01*
X170027600Y-97155000D02*
X168376600Y-95681800D01*
X158673800Y-83362800D02*
X157467800Y-83362800D01*
X165773100Y-94094300D02*
X163893500Y-94094300D01*
X159080200Y-89281000D02*
X159080200Y-84937600D01*
X159080200Y-84937600D02*
X159080200Y-83769200D01*
X159080200Y-83769200D02*
X158673800Y-83362800D01*
X163931600Y-97063400D02*
X163931600Y-94132400D01*
%TO.N,SCK*%
X168656000Y-97078800D02*
X167817800Y-96240600D01*
X162560000Y-100975000D02*
X162560000Y-100096010D01*
X164744400Y-97028000D02*
X164414200Y-97358200D01*
X160731200Y-98267210D02*
X160731200Y-92379800D01*
X154914600Y-86563200D02*
X154914600Y-83413600D01*
X168656000Y-97231200D02*
X168656000Y-97078800D01*
X164414200Y-97358200D02*
X164414200Y-100304600D01*
X152336000Y-80835000D02*
X149225000Y-80835000D01*
X164414200Y-100304600D02*
X163743800Y-100975000D01*
X169341800Y-97917000D02*
X168656000Y-97231200D01*
X163743800Y-100975000D02*
X162560000Y-100975000D01*
X169697400Y-97917000D02*
X169341800Y-97917000D01*
X166547800Y-96240600D02*
X166243000Y-95935800D01*
X164744400Y-96443800D02*
X164744400Y-97028000D01*
X167817800Y-96240600D02*
X166547800Y-96240600D01*
X166243000Y-95935800D02*
X165252400Y-95935800D01*
X160731200Y-92379800D02*
X154914600Y-86563200D01*
X154914600Y-83413600D02*
X152336000Y-80835000D01*
X170764200Y-98983800D02*
X170357800Y-98983800D01*
X170764200Y-98983800D02*
X169697400Y-97917000D01*
X165252400Y-95935800D02*
X164744400Y-96443800D01*
X162560000Y-100096010D02*
X160731200Y-98267210D01*
D26*
%TO.N,Net-(J4-Pad1)*%
X153035000Y-85915000D02*
X153610100Y-85915000D01*
X153610100Y-85915000D02*
X154190100Y-85335000D01*
%TO.N,EN_BUCK*%
X147320000Y-101219000D02*
X147320000Y-102045000D01*
X148513800Y-100025200D02*
X147320000Y-101219000D01*
D27*
X153898600Y-97586800D02*
X149860000Y-97790000D01*
%TO.N,Net-(R1-Pad2)*%
X148513800Y-87198200D02*
X148513800Y-86626200D01*
X151130000Y-85915000D02*
X149225000Y-85915000D01*
X148513800Y-86626200D02*
X149225000Y-85915000D01*
D26*
%TO.N,Net-(R3-Pad2)*%
X147828000Y-76631800D02*
X148603200Y-76631800D01*
X148603200Y-76631800D02*
X149225000Y-76010000D01*
D27*
%TO.N,EN_BUCK_MC*%
X150901400Y-93903800D02*
X150901400Y-94831400D01*
X150901400Y-94831400D02*
X151130000Y-95060000D01*
%TO.N,Net-(R6-Pad2)*%
X154533600Y-105994200D02*
X154533600Y-105943400D01*
X154533600Y-105943400D02*
X153365200Y-105943400D01*
X153365200Y-105943400D02*
X152755600Y-106553000D01*
X152755600Y-106553000D02*
X152755600Y-106998000D01*
D26*
%TO.N,RST*%
X151215000Y-72098800D02*
X145965000Y-72098800D01*
X151092400Y-76010000D02*
X151130000Y-76010000D01*
X150368000Y-75285600D02*
X151092400Y-76010000D01*
D27*
%TO.N,Net-(R10-Pad1)*%
X154895158Y-97663458D02*
X153397016Y-99161600D01*
X146710400Y-100494600D02*
X145415000Y-101790000D01*
X146710400Y-99669600D02*
X146710400Y-100494600D01*
D24*
X145415000Y-102045000D02*
X145415000Y-101790000D01*
D27*
X153397016Y-99161600D02*
X147218400Y-99161600D01*
X147218400Y-99161600D02*
X146710400Y-99669600D01*
D24*
%TO.N,BOOT0*%
X157753800Y-72116200D02*
X159470000Y-72116200D01*
X156946600Y-72923400D02*
X157753800Y-72116200D01*
X156946600Y-72923400D02*
X156139400Y-72116200D01*
D26*
X156845000Y-80835000D02*
X156845000Y-80975200D01*
X156845000Y-80975200D02*
X157657800Y-81788000D01*
D24*
X156139400Y-72116200D02*
X154220000Y-72116200D01*
D27*
%TO.N,Net-(R12-Pad1)*%
X154926800Y-106998000D02*
X155397200Y-106527600D01*
X154355800Y-106998000D02*
X154926800Y-106998000D01*
D26*
%TO.N,BTN_1*%
X166788600Y-85217000D02*
X167106600Y-84899000D01*
D24*
X167106600Y-84899000D02*
X167106600Y-87249000D01*
X170864000Y-88290400D02*
X171030000Y-88456400D01*
X171030000Y-88456400D02*
X171030000Y-90890000D01*
X168148000Y-88290400D02*
X170864000Y-88290400D01*
X167106600Y-87249000D02*
X168148000Y-88290400D01*
D26*
X163931600Y-85217000D02*
X166788600Y-85217000D01*
D24*
X171030000Y-85640000D02*
X171030000Y-88456400D01*
D26*
X158999100Y-80284500D02*
X163931600Y-85217000D01*
X158978600Y-80284500D02*
X158999100Y-80284500D01*
D27*
%TO.N,BTN_2*%
X158394400Y-77343000D02*
X158705311Y-77032089D01*
X158705311Y-77032089D02*
X165271689Y-77032089D01*
X166547800Y-78308200D02*
X166547800Y-79197200D01*
D24*
X171030000Y-80760200D02*
X171030000Y-83270000D01*
X171030000Y-78020000D02*
X171030000Y-80760200D01*
D27*
X165271689Y-77032089D02*
X166547800Y-78308200D01*
%TO.N,BAT*%
X144018000Y-90424000D02*
X145161000Y-90424000D01*
X143891000Y-85623400D02*
X142392400Y-87122000D01*
X142392400Y-88798400D02*
X144018000Y-90424000D01*
X142392400Y-87122000D02*
X142392400Y-88798400D01*
X143891000Y-75336400D02*
X143891000Y-85623400D01*
D26*
%TO.N,Net-(Q1-Pad1)*%
X149936200Y-95275400D02*
X149936200Y-96494600D01*
X149936200Y-96494600D02*
X150151600Y-96710000D01*
X150151600Y-96710000D02*
X151130000Y-96710000D01*
%TO.N,Net-(Q1-Pad2)*%
X147320000Y-97980000D02*
X148412300Y-97980000D01*
X148412300Y-97980000D02*
X148869400Y-98437100D01*
%TD*%
%TA.AperFunction,Conductor*%
%TO.N,GND*%
G36*
X158383997Y-90932662D02*
G01*
X158405222Y-90949726D01*
X160060795Y-92605299D01*
X160094821Y-92667611D01*
X160097700Y-92694394D01*
X160097700Y-98188443D01*
X160097173Y-98199626D01*
X160095498Y-98207119D01*
X160095747Y-98215045D01*
X160095747Y-98215046D01*
X160097638Y-98275196D01*
X160097700Y-98279155D01*
X160097700Y-98307066D01*
X160098197Y-98311000D01*
X160098197Y-98311001D01*
X160098205Y-98311066D01*
X160099138Y-98322903D01*
X160100527Y-98367099D01*
X160105334Y-98383644D01*
X160106178Y-98386549D01*
X160110187Y-98405910D01*
X160112726Y-98426007D01*
X160115645Y-98433378D01*
X160115645Y-98433380D01*
X160129004Y-98467122D01*
X160132849Y-98478352D01*
X160141491Y-98508098D01*
X160145182Y-98520803D01*
X160149215Y-98527622D01*
X160149217Y-98527627D01*
X160155493Y-98538238D01*
X160164188Y-98555986D01*
X160171648Y-98574827D01*
X160176310Y-98581243D01*
X160176310Y-98581244D01*
X160197636Y-98610597D01*
X160204152Y-98620517D01*
X160226658Y-98658572D01*
X160240979Y-98672893D01*
X160253819Y-98687926D01*
X160265728Y-98704317D01*
X160271834Y-98709368D01*
X160299805Y-98732508D01*
X160308584Y-98740498D01*
X161503735Y-99935649D01*
X161537761Y-99997961D01*
X161532696Y-100068776D01*
X161507320Y-100109268D01*
X161507457Y-100109379D01*
X161506542Y-100110509D01*
X161505741Y-100111787D01*
X161504207Y-100113392D01*
X161504197Y-100113404D01*
X161500629Y-100117138D01*
X161497715Y-100121410D01*
X161497714Y-100121411D01*
X161482798Y-100143277D01*
X161374743Y-100301680D01*
X161280688Y-100504305D01*
X161220989Y-100719570D01*
X161197251Y-100941695D01*
X161210110Y-101164715D01*
X161211247Y-101169761D01*
X161211248Y-101169767D01*
X161229642Y-101251386D01*
X161259222Y-101382639D01*
X161315214Y-101520531D01*
X161339080Y-101579306D01*
X161343266Y-101589616D01*
X161374038Y-101639831D01*
X161431271Y-101733227D01*
X161459987Y-101780088D01*
X161463367Y-101783990D01*
X161474352Y-101796671D01*
X161606250Y-101948938D01*
X161778126Y-102091632D01*
X161851955Y-102134774D01*
X161900679Y-102186412D01*
X161913750Y-102256195D01*
X161887019Y-102321967D01*
X161846562Y-102355327D01*
X161838457Y-102359546D01*
X161829738Y-102365036D01*
X161659433Y-102492905D01*
X161651726Y-102499748D01*
X161504590Y-102653717D01*
X161498104Y-102661727D01*
X161378098Y-102837649D01*
X161373000Y-102846623D01*
X161283338Y-103039783D01*
X161279775Y-103049470D01*
X161224389Y-103249183D01*
X161225912Y-103257607D01*
X161238292Y-103261000D01*
X163878344Y-103261000D01*
X163891875Y-103257027D01*
X163893180Y-103247947D01*
X163851214Y-103080875D01*
X163847894Y-103071124D01*
X163762972Y-102875814D01*
X163758105Y-102866739D01*
X163642426Y-102687926D01*
X163636136Y-102679757D01*
X163492806Y-102522240D01*
X163485273Y-102515215D01*
X163318139Y-102383222D01*
X163309556Y-102377520D01*
X163272602Y-102357120D01*
X163222631Y-102306687D01*
X163207859Y-102237245D01*
X163232975Y-102170839D01*
X163260327Y-102144232D01*
X163283797Y-102127491D01*
X163439860Y-102016173D01*
X163598096Y-101858489D01*
X163657594Y-101775689D01*
X163725435Y-101681277D01*
X163728453Y-101677077D01*
X163730746Y-101672438D01*
X163733405Y-101668012D01*
X163735281Y-101669139D01*
X163777151Y-101623736D01*
X163828184Y-101608736D01*
X163827935Y-101607163D01*
X163835769Y-101605922D01*
X163843689Y-101605673D01*
X163863143Y-101600021D01*
X163882500Y-101596013D01*
X163894730Y-101594468D01*
X163894731Y-101594468D01*
X163902597Y-101593474D01*
X163909968Y-101590555D01*
X163909970Y-101590555D01*
X163943712Y-101577196D01*
X163954942Y-101573351D01*
X163989783Y-101563229D01*
X163989784Y-101563229D01*
X163997393Y-101561018D01*
X164004212Y-101556985D01*
X164004217Y-101556983D01*
X164014828Y-101550707D01*
X164032576Y-101542012D01*
X164051417Y-101534552D01*
X164087187Y-101508564D01*
X164097107Y-101502048D01*
X164128335Y-101483580D01*
X164128338Y-101483578D01*
X164135162Y-101479542D01*
X164149483Y-101465221D01*
X164164517Y-101452380D01*
X164174493Y-101445132D01*
X164180907Y-101440472D01*
X164209088Y-101406407D01*
X164217078Y-101397627D01*
X164376905Y-101237800D01*
X164439217Y-101203774D01*
X164510032Y-101208839D01*
X164566868Y-101251386D01*
X164591679Y-101317906D01*
X164592000Y-101326895D01*
X164592000Y-101550672D01*
X164590500Y-101570056D01*
X164586814Y-101593730D01*
X164587634Y-101600000D01*
X164594679Y-101680522D01*
X164604585Y-101793746D01*
X164605065Y-101799238D01*
X164656829Y-101992422D01*
X164659152Y-101997403D01*
X164659152Y-101997404D01*
X164739026Y-102168696D01*
X164739029Y-102168701D01*
X164741352Y-102173683D01*
X164744508Y-102178190D01*
X164744509Y-102178192D01*
X164845182Y-102321967D01*
X164856067Y-102337513D01*
X164997487Y-102478933D01*
X165001995Y-102482090D01*
X165001998Y-102482092D01*
X165092120Y-102545196D01*
X165161317Y-102593648D01*
X165166299Y-102595971D01*
X165166304Y-102595974D01*
X165337596Y-102675848D01*
X165342578Y-102678171D01*
X165347886Y-102679593D01*
X165347888Y-102679594D01*
X165530447Y-102728511D01*
X165530449Y-102728511D01*
X165535762Y-102729935D01*
X165735000Y-102747366D01*
X165934238Y-102729935D01*
X165939551Y-102728511D01*
X165939553Y-102728511D01*
X166122112Y-102679594D01*
X166122114Y-102679593D01*
X166127422Y-102678171D01*
X166132404Y-102675848D01*
X166303696Y-102595974D01*
X166303701Y-102595971D01*
X166308683Y-102593648D01*
X166377880Y-102545196D01*
X166468002Y-102482092D01*
X166468005Y-102482090D01*
X166472513Y-102478933D01*
X166613933Y-102337513D01*
X166624819Y-102321967D01*
X166725491Y-102178192D01*
X166725492Y-102178190D01*
X166728648Y-102173683D01*
X166730971Y-102168701D01*
X166730974Y-102168696D01*
X166810848Y-101997404D01*
X166810848Y-101997403D01*
X166813171Y-101992422D01*
X166864935Y-101799238D01*
X166865415Y-101793752D01*
X166865416Y-101793746D01*
X166878883Y-101639831D01*
X166880148Y-101629913D01*
X166881187Y-101623736D01*
X166883071Y-101612539D01*
X166883224Y-101600000D01*
X166879273Y-101572412D01*
X166878000Y-101554549D01*
X166878000Y-97208207D01*
X166879746Y-97187303D01*
X166882264Y-97172335D01*
X166883071Y-97167539D01*
X166883224Y-97155000D01*
X166881511Y-97143039D01*
X166880719Y-97136170D01*
X166869775Y-97011082D01*
X166883764Y-96941477D01*
X166933163Y-96890485D01*
X166995296Y-96874100D01*
X167503205Y-96874100D01*
X167571326Y-96894102D01*
X167592300Y-96911005D01*
X168002868Y-97321573D01*
X168035816Y-97379337D01*
X168036531Y-97382123D01*
X168037526Y-97389997D01*
X168040447Y-97397374D01*
X168040447Y-97397375D01*
X168053804Y-97431112D01*
X168057649Y-97442342D01*
X168067771Y-97477183D01*
X168069982Y-97484793D01*
X168074015Y-97491612D01*
X168074017Y-97491617D01*
X168080293Y-97502228D01*
X168088988Y-97519976D01*
X168096448Y-97538817D01*
X168101110Y-97545233D01*
X168101110Y-97545234D01*
X168122436Y-97574587D01*
X168128952Y-97584507D01*
X168151458Y-97622562D01*
X168165779Y-97636883D01*
X168178619Y-97651916D01*
X168190528Y-97668307D01*
X168196634Y-97673358D01*
X168224605Y-97696498D01*
X168233384Y-97704488D01*
X168838143Y-98309247D01*
X168845687Y-98317537D01*
X168849800Y-98324018D01*
X168855577Y-98329443D01*
X168899467Y-98370658D01*
X168902309Y-98373413D01*
X168922031Y-98393135D01*
X168925155Y-98395558D01*
X168925159Y-98395562D01*
X168925224Y-98395612D01*
X168934245Y-98403317D01*
X168966479Y-98433586D01*
X168973427Y-98437405D01*
X168973429Y-98437407D01*
X168984232Y-98443346D01*
X169000759Y-98454202D01*
X169010498Y-98461757D01*
X169010500Y-98461758D01*
X169016760Y-98466614D01*
X169057340Y-98484174D01*
X169067988Y-98489391D01*
X169071270Y-98491195D01*
X169106740Y-98510695D01*
X169114416Y-98512666D01*
X169114419Y-98512667D01*
X169126362Y-98515733D01*
X169145067Y-98522137D01*
X169163655Y-98530181D01*
X169171478Y-98531420D01*
X169171488Y-98531423D01*
X169207324Y-98537099D01*
X169218944Y-98539505D01*
X169254089Y-98548528D01*
X169261770Y-98550500D01*
X169282024Y-98550500D01*
X169301734Y-98552051D01*
X169321743Y-98555220D01*
X169329635Y-98554474D01*
X169365761Y-98551059D01*
X169377619Y-98550500D01*
X169382806Y-98550500D01*
X169450927Y-98570502D01*
X169471901Y-98587405D01*
X169690601Y-98806105D01*
X169724627Y-98868417D01*
X169725274Y-98918809D01*
X169720525Y-98943706D01*
X169730575Y-99103450D01*
X169733024Y-99110986D01*
X169733024Y-99110988D01*
X169777226Y-99247026D01*
X169780036Y-99255675D01*
X169865800Y-99390818D01*
X169982479Y-99500386D01*
X170012025Y-99516629D01*
X170044957Y-99542732D01*
X170148527Y-99657759D01*
X170148536Y-99657767D01*
X170152947Y-99662666D01*
X170158286Y-99666545D01*
X170291408Y-99763264D01*
X170307448Y-99774918D01*
X170313476Y-99777602D01*
X170313478Y-99777603D01*
X170452722Y-99839598D01*
X170481912Y-99852594D01*
X170571262Y-99871586D01*
X170662256Y-99890928D01*
X170662261Y-99890928D01*
X170668713Y-99892300D01*
X170859687Y-99892300D01*
X170866139Y-99890928D01*
X170866144Y-99890928D01*
X170957138Y-99871586D01*
X171046488Y-99852594D01*
X171075678Y-99839598D01*
X171214922Y-99777603D01*
X171214924Y-99777602D01*
X171220952Y-99774918D01*
X171236993Y-99763264D01*
X171375453Y-99662666D01*
X171376938Y-99664710D01*
X171430697Y-99638910D01*
X171501151Y-99647675D01*
X171555682Y-99693138D01*
X171577000Y-99763264D01*
X171577000Y-113734334D01*
X171556998Y-113802455D01*
X171503342Y-113848948D01*
X171433068Y-113859052D01*
X171368488Y-113829558D01*
X171349453Y-113808928D01*
X171294658Y-113734334D01*
X171232018Y-113649060D01*
X170995842Y-113394904D01*
X170732019Y-113169578D01*
X170444047Y-112976069D01*
X170279594Y-112891188D01*
X170148362Y-112823454D01*
X170135741Y-112816940D01*
X169811189Y-112694302D01*
X169807668Y-112693418D01*
X169807663Y-112693416D01*
X169611362Y-112644109D01*
X169474692Y-112609780D01*
X169446474Y-112606065D01*
X169134315Y-112564968D01*
X169134307Y-112564967D01*
X169130711Y-112564494D01*
X168986045Y-112562221D01*
X168787446Y-112559101D01*
X168787442Y-112559101D01*
X168783804Y-112559044D01*
X168780190Y-112559405D01*
X168780184Y-112559405D01*
X168553123Y-112582069D01*
X168438569Y-112593503D01*
X168099583Y-112667414D01*
X168096156Y-112668587D01*
X168096150Y-112668589D01*
X167790829Y-112773124D01*
X167771339Y-112779797D01*
X167458188Y-112929163D01*
X167164279Y-113113532D01*
X167161443Y-113115804D01*
X167161436Y-113115809D01*
X166965724Y-113272604D01*
X166893509Y-113330459D01*
X166890958Y-113333037D01*
X166673561Y-113552722D01*
X166611427Y-113587073D01*
X166540586Y-113582379D01*
X166483528Y-113540130D01*
X166458370Y-113473741D01*
X166458000Y-113464094D01*
X166458000Y-113302115D01*
X166453525Y-113286876D01*
X166452135Y-113285671D01*
X166444452Y-113284000D01*
X165372115Y-113284000D01*
X165356876Y-113288475D01*
X165355671Y-113289865D01*
X165354000Y-113297548D01*
X165354000Y-114369884D01*
X165358475Y-114385123D01*
X165359865Y-114386328D01*
X165367548Y-114387999D01*
X165957661Y-114387999D01*
X166025782Y-114408001D01*
X166072275Y-114461657D01*
X166082379Y-114531931D01*
X166077289Y-114553562D01*
X166000226Y-114786577D01*
X166000223Y-114786587D01*
X165999087Y-114790023D01*
X165998351Y-114793578D01*
X165998350Y-114793581D01*
X165933924Y-115104684D01*
X165928730Y-115129764D01*
X165928408Y-115133375D01*
X165899748Y-115454505D01*
X165897888Y-115475341D01*
X165897983Y-115478971D01*
X165897983Y-115478972D01*
X165906875Y-115818546D01*
X165906970Y-115822171D01*
X165955856Y-116165660D01*
X166043897Y-116501253D01*
X166169927Y-116824503D01*
X166171624Y-116827708D01*
X166271121Y-117015625D01*
X166332275Y-117131126D01*
X166334325Y-117134109D01*
X166334327Y-117134112D01*
X166526733Y-117414064D01*
X166526739Y-117414071D01*
X166528790Y-117417056D01*
X166756866Y-117678505D01*
X166759551Y-117680948D01*
X166969268Y-117871775D01*
X167013481Y-117912006D01*
X167087303Y-117965052D01*
X167130948Y-118021044D01*
X167137394Y-118091747D01*
X167104591Y-118154712D01*
X167042955Y-118189946D01*
X167013894Y-118193372D01*
X161951522Y-118198195D01*
X161883382Y-118178258D01*
X161836838Y-118124646D01*
X161826667Y-118054382D01*
X161856099Y-117989773D01*
X161907791Y-117953983D01*
X161961060Y-117934331D01*
X161971438Y-117929381D01*
X162148361Y-117824123D01*
X162157673Y-117817357D01*
X162312453Y-117681619D01*
X162320370Y-117673276D01*
X162447820Y-117511606D01*
X162454091Y-117501950D01*
X162549940Y-117319771D01*
X162554345Y-117309137D01*
X162615393Y-117112530D01*
X162617785Y-117101276D01*
X162634863Y-116956988D01*
X162632421Y-116942569D01*
X162619679Y-116939000D01*
X160292306Y-116939000D01*
X160277761Y-116943271D01*
X160275698Y-116955405D01*
X160286297Y-117070754D01*
X160288394Y-117082068D01*
X160344275Y-117280206D01*
X160348397Y-117290945D01*
X160439451Y-117475583D01*
X160445462Y-117485392D01*
X160568640Y-117650349D01*
X160576329Y-117658889D01*
X160727510Y-117798639D01*
X160736635Y-117805640D01*
X160910745Y-117915495D01*
X160920989Y-117920714D01*
X161009700Y-117956107D01*
X161065559Y-117999928D01*
X161088859Y-118066992D01*
X161072203Y-118136008D01*
X161020878Y-118185062D01*
X160963130Y-118199137D01*
X157984123Y-118201975D01*
X156477386Y-118203410D01*
X156409246Y-118183473D01*
X156362702Y-118129861D01*
X156352531Y-118059597D01*
X156381963Y-117994988D01*
X156433655Y-117959198D01*
X156501060Y-117934331D01*
X156511438Y-117929381D01*
X156688361Y-117824123D01*
X156697673Y-117817357D01*
X156852453Y-117681619D01*
X156860370Y-117673276D01*
X156987820Y-117511606D01*
X156994091Y-117501950D01*
X157089940Y-117319771D01*
X157094345Y-117309137D01*
X157155393Y-117112530D01*
X157157785Y-117101276D01*
X157174863Y-116956988D01*
X157172421Y-116942569D01*
X157159679Y-116939000D01*
X154832306Y-116939000D01*
X154817761Y-116943271D01*
X154815698Y-116955405D01*
X154826297Y-117070754D01*
X154828394Y-117082068D01*
X154884275Y-117280206D01*
X154888397Y-117290945D01*
X154979451Y-117475583D01*
X154985462Y-117485392D01*
X155108640Y-117650349D01*
X155116329Y-117658889D01*
X155267510Y-117798639D01*
X155276635Y-117805640D01*
X155450745Y-117915495D01*
X155460992Y-117920716D01*
X155562706Y-117961296D01*
X155618566Y-118005117D01*
X155641866Y-118072181D01*
X155625210Y-118141196D01*
X155573886Y-118190251D01*
X155516136Y-118204326D01*
X152611294Y-118207093D01*
X141101208Y-118218058D01*
X141083589Y-118216235D01*
X141077395Y-118215831D01*
X141068605Y-118213983D01*
X141059656Y-118214675D01*
X141059650Y-118214675D01*
X141054060Y-118215108D01*
X141028166Y-118214442D01*
X140964487Y-118206199D01*
X140899499Y-118177618D01*
X140870898Y-118143110D01*
X140869820Y-118141196D01*
X139978728Y-116560227D01*
X139677867Y-116026441D01*
X139661632Y-115964833D01*
X139658076Y-114242125D01*
X140998045Y-114242125D01*
X141005553Y-114324624D01*
X141014774Y-114425943D01*
X141015970Y-114439088D01*
X141017708Y-114444994D01*
X141017709Y-114444998D01*
X141043295Y-114531931D01*
X141071810Y-114628819D01*
X141074663Y-114634277D01*
X141074665Y-114634281D01*
X141122120Y-114725053D01*
X141163440Y-114804090D01*
X141287368Y-114958225D01*
X141438874Y-115085354D01*
X141444272Y-115088321D01*
X141444277Y-115088325D01*
X141526224Y-115133375D01*
X141612187Y-115180633D01*
X141618054Y-115182494D01*
X141618056Y-115182495D01*
X141794836Y-115238573D01*
X141800706Y-115240435D01*
X141914545Y-115253204D01*
X141980012Y-115280675D01*
X142020234Y-115339179D01*
X142026500Y-115378419D01*
X142026500Y-115613134D01*
X142033255Y-115675316D01*
X142084385Y-115811705D01*
X142171739Y-115928261D01*
X142288295Y-116015615D01*
X142424684Y-116066745D01*
X142486866Y-116073500D01*
X143826667Y-116073500D01*
X143887365Y-116089084D01*
X143892785Y-116092064D01*
X143892791Y-116092067D01*
X143898187Y-116095033D01*
X143903269Y-116096645D01*
X143907963Y-116099162D01*
X143996931Y-116126362D01*
X143997959Y-116126682D01*
X144086706Y-116154835D01*
X144092002Y-116155429D01*
X144097098Y-116156987D01*
X144189657Y-116166390D01*
X144190793Y-116166511D01*
X144224408Y-116170281D01*
X144237130Y-116171708D01*
X144237134Y-116171708D01*
X144240627Y-116172100D01*
X144244154Y-116172100D01*
X144245139Y-116172155D01*
X144250819Y-116172602D01*
X144280225Y-116175589D01*
X144287737Y-116176352D01*
X144287739Y-116176352D01*
X144293862Y-116176974D01*
X144339508Y-116172659D01*
X144351367Y-116172100D01*
X146994053Y-116172100D01*
X147062174Y-116192102D01*
X147108667Y-116245758D01*
X147119683Y-116297258D01*
X147119445Y-116299525D01*
X147137370Y-116496488D01*
X147139108Y-116502394D01*
X147139109Y-116502398D01*
X147154487Y-116554648D01*
X147193210Y-116686219D01*
X147196063Y-116691677D01*
X147196065Y-116691681D01*
X147238828Y-116773478D01*
X147284840Y-116861490D01*
X147408768Y-117015625D01*
X147560274Y-117142754D01*
X147565672Y-117145721D01*
X147565677Y-117145725D01*
X147708980Y-117224505D01*
X147733587Y-117238033D01*
X147739454Y-117239894D01*
X147739456Y-117239895D01*
X147870041Y-117281319D01*
X147922106Y-117297835D01*
X148076027Y-117315100D01*
X149431557Y-117315100D01*
X149445164Y-117315837D01*
X149476662Y-117319259D01*
X149476667Y-117319259D01*
X149482788Y-117319924D01*
X149509038Y-117317627D01*
X149532788Y-117315550D01*
X149537614Y-117315221D01*
X149540086Y-117315100D01*
X149543169Y-117315100D01*
X149555138Y-117313926D01*
X149585906Y-117310910D01*
X149587219Y-117310788D01*
X149631484Y-117306915D01*
X149679813Y-117302687D01*
X149684932Y-117301200D01*
X149690233Y-117300680D01*
X149754785Y-117281191D01*
X149828039Y-117281319D01*
X149903685Y-117304446D01*
X149914374Y-117307714D01*
X149915634Y-117308106D01*
X150004306Y-117336235D01*
X150009602Y-117336829D01*
X150014698Y-117338387D01*
X150107257Y-117347790D01*
X150108393Y-117347911D01*
X150142008Y-117351681D01*
X150154730Y-117353108D01*
X150154734Y-117353108D01*
X150158227Y-117353500D01*
X150161754Y-117353500D01*
X150162739Y-117353555D01*
X150168419Y-117354002D01*
X150197825Y-117356989D01*
X150205337Y-117357752D01*
X150205339Y-117357752D01*
X150211462Y-117358374D01*
X150257108Y-117354059D01*
X150268967Y-117353500D01*
X152449769Y-117353500D01*
X152452825Y-117353200D01*
X152452832Y-117353200D01*
X152511340Y-117347463D01*
X152596833Y-117339080D01*
X152602734Y-117337298D01*
X152602736Y-117337298D01*
X152662060Y-117319387D01*
X152711548Y-117304446D01*
X152734960Y-117299741D01*
X152746720Y-117298521D01*
X152794162Y-117293599D01*
X152794167Y-117293598D01*
X152801019Y-117292887D01*
X152876321Y-117267764D01*
X152956324Y-117241073D01*
X152956326Y-117241072D01*
X152963268Y-117238756D01*
X153108713Y-117148752D01*
X153123328Y-117134112D01*
X153224381Y-117032882D01*
X153229552Y-117027702D01*
X153234553Y-117019589D01*
X153315462Y-116888331D01*
X153315463Y-116888329D01*
X153319302Y-116882101D01*
X153373149Y-116719757D01*
X153374448Y-116707084D01*
X153383172Y-116621930D01*
X153383500Y-116618732D01*
X153383500Y-116597485D01*
X153389133Y-116560233D01*
X153392682Y-116548768D01*
X153406950Y-116413012D01*
X154815137Y-116413012D01*
X154817579Y-116427431D01*
X154830321Y-116431000D01*
X155722885Y-116431000D01*
X155738124Y-116426525D01*
X155739329Y-116425135D01*
X155741000Y-116417452D01*
X155741000Y-116412885D01*
X156249000Y-116412885D01*
X156253475Y-116428124D01*
X156254865Y-116429329D01*
X156262548Y-116431000D01*
X157157694Y-116431000D01*
X157172239Y-116426729D01*
X157174302Y-116414595D01*
X157174157Y-116413012D01*
X160275137Y-116413012D01*
X160277579Y-116427431D01*
X160290321Y-116431000D01*
X161182885Y-116431000D01*
X161198124Y-116426525D01*
X161199329Y-116425135D01*
X161201000Y-116417452D01*
X161201000Y-116412885D01*
X161709000Y-116412885D01*
X161713475Y-116428124D01*
X161714865Y-116429329D01*
X161722548Y-116431000D01*
X162617694Y-116431000D01*
X162632239Y-116426729D01*
X162634302Y-116414595D01*
X162623703Y-116299246D01*
X162621606Y-116287932D01*
X162565725Y-116089794D01*
X162561603Y-116079055D01*
X162470549Y-115894417D01*
X162464538Y-115884608D01*
X162341360Y-115719651D01*
X162333671Y-115711111D01*
X162182490Y-115571361D01*
X162173365Y-115564360D01*
X161999255Y-115454505D01*
X161989008Y-115449284D01*
X161797793Y-115372997D01*
X161786767Y-115369730D01*
X161726770Y-115357797D01*
X161713894Y-115358949D01*
X161709000Y-115374102D01*
X161709000Y-116412885D01*
X161201000Y-116412885D01*
X161201000Y-115371337D01*
X161197194Y-115358375D01*
X161182278Y-115356439D01*
X161153202Y-115361435D01*
X161142082Y-115364415D01*
X160948940Y-115435669D01*
X160938562Y-115440619D01*
X160761639Y-115545877D01*
X160752327Y-115552643D01*
X160597547Y-115688381D01*
X160589630Y-115696724D01*
X160462180Y-115858394D01*
X160455909Y-115868050D01*
X160360060Y-116050229D01*
X160355655Y-116060863D01*
X160294607Y-116257470D01*
X160292215Y-116268724D01*
X160275137Y-116413012D01*
X157174157Y-116413012D01*
X157163703Y-116299246D01*
X157161606Y-116287932D01*
X157105725Y-116089794D01*
X157101603Y-116079055D01*
X157010549Y-115894417D01*
X157004538Y-115884608D01*
X156881360Y-115719651D01*
X156873671Y-115711111D01*
X156722490Y-115571361D01*
X156713365Y-115564360D01*
X156539255Y-115454505D01*
X156529008Y-115449284D01*
X156337793Y-115372997D01*
X156326767Y-115369730D01*
X156266770Y-115357797D01*
X156253894Y-115358949D01*
X156249000Y-115374102D01*
X156249000Y-116412885D01*
X155741000Y-116412885D01*
X155741000Y-115371337D01*
X155737194Y-115358375D01*
X155722278Y-115356439D01*
X155693202Y-115361435D01*
X155682082Y-115364415D01*
X155488940Y-115435669D01*
X155478562Y-115440619D01*
X155301639Y-115545877D01*
X155292327Y-115552643D01*
X155137547Y-115688381D01*
X155129630Y-115696724D01*
X155002180Y-115858394D01*
X154995909Y-115868050D01*
X154900060Y-116050229D01*
X154895655Y-116060863D01*
X154834607Y-116257470D01*
X154832215Y-116268724D01*
X154815137Y-116413012D01*
X153406950Y-116413012D01*
X153413355Y-116352075D01*
X153403679Y-116245758D01*
X153395989Y-116161251D01*
X153395988Y-116161248D01*
X153395430Y-116155112D01*
X153388626Y-116131994D01*
X153383500Y-116096419D01*
X153383500Y-116071268D01*
X153382421Y-116060863D01*
X153378053Y-116018767D01*
X153372887Y-115968981D01*
X153344738Y-115884608D01*
X153321073Y-115813676D01*
X153321072Y-115813674D01*
X153318756Y-115806732D01*
X153228752Y-115661287D01*
X153223570Y-115656114D01*
X153219023Y-115650377D01*
X153220830Y-115648945D01*
X153192098Y-115596425D01*
X153197108Y-115525605D01*
X153220499Y-115489147D01*
X153219448Y-115488317D01*
X153232998Y-115471160D01*
X153315004Y-115338120D01*
X153321151Y-115324939D01*
X153370491Y-115176186D01*
X153373358Y-115162810D01*
X153382672Y-115071903D01*
X153382929Y-115066874D01*
X153378525Y-115051876D01*
X153377135Y-115050671D01*
X153369452Y-115049000D01*
X152272000Y-115049000D01*
X152203879Y-115028998D01*
X152157386Y-114975342D01*
X152146000Y-114923000D01*
X152146000Y-114739832D01*
X152166002Y-114671711D01*
X152219658Y-114625218D01*
X152236846Y-114618835D01*
X152275414Y-114607630D01*
X152275418Y-114607628D01*
X152281336Y-114605909D01*
X152286068Y-114603456D01*
X152291169Y-114601916D01*
X152296612Y-114599022D01*
X152373260Y-114558269D01*
X152374422Y-114557659D01*
X152379285Y-114555138D01*
X152437275Y-114541000D01*
X153364885Y-114541000D01*
X153380124Y-114536525D01*
X153381329Y-114535135D01*
X153383000Y-114527452D01*
X153383000Y-114524562D01*
X153382663Y-114518047D01*
X153373106Y-114425943D01*
X153370211Y-114412541D01*
X153347470Y-114344375D01*
X153344886Y-114273426D01*
X153381070Y-114212342D01*
X153444534Y-114180518D01*
X153466994Y-114178500D01*
X153899957Y-114178500D01*
X153913564Y-114179237D01*
X153945062Y-114182659D01*
X153945067Y-114182659D01*
X153951188Y-114183324D01*
X153983262Y-114180518D01*
X154001188Y-114178950D01*
X154006014Y-114178621D01*
X154008486Y-114178500D01*
X154011569Y-114178500D01*
X154023538Y-114177326D01*
X154054306Y-114174310D01*
X154055619Y-114174188D01*
X154099884Y-114170315D01*
X154148213Y-114166087D01*
X154153332Y-114164600D01*
X154158633Y-114164080D01*
X154247634Y-114137209D01*
X154248767Y-114136874D01*
X154332214Y-114112630D01*
X154332218Y-114112628D01*
X154338136Y-114110909D01*
X154342868Y-114108456D01*
X154347969Y-114106916D01*
X154353412Y-114104022D01*
X154430060Y-114063269D01*
X154431226Y-114062657D01*
X154508253Y-114022729D01*
X154513726Y-114019892D01*
X154517889Y-114016569D01*
X154522596Y-114014066D01*
X154594296Y-113955589D01*
X155248803Y-113955589D01*
X155261527Y-114085361D01*
X155263910Y-114097396D01*
X155320317Y-114284223D01*
X155324992Y-114295565D01*
X155416612Y-114467879D01*
X155423399Y-114478095D01*
X155546747Y-114629335D01*
X155555391Y-114638039D01*
X155705763Y-114762438D01*
X155715931Y-114769297D01*
X155887607Y-114862121D01*
X155898907Y-114866871D01*
X156033693Y-114908595D01*
X156047795Y-114908801D01*
X156051000Y-114902045D01*
X156051000Y-114895047D01*
X156559000Y-114895047D01*
X156562973Y-114908578D01*
X156570768Y-114909698D01*
X156697342Y-114872446D01*
X156708710Y-114867853D01*
X156881666Y-114777434D01*
X156891928Y-114770718D01*
X157044020Y-114648432D01*
X157052786Y-114639848D01*
X157178236Y-114490344D01*
X157185160Y-114480233D01*
X157279184Y-114309202D01*
X157284012Y-114297938D01*
X157343025Y-114111905D01*
X157345573Y-114099916D01*
X157361762Y-113955589D01*
X160088803Y-113955589D01*
X160101527Y-114085361D01*
X160103910Y-114097396D01*
X160160317Y-114284223D01*
X160164992Y-114295565D01*
X160256612Y-114467879D01*
X160263399Y-114478095D01*
X160386747Y-114629335D01*
X160395391Y-114638039D01*
X160545763Y-114762438D01*
X160555931Y-114769297D01*
X160727607Y-114862121D01*
X160738907Y-114866871D01*
X160873693Y-114908595D01*
X160887795Y-114908801D01*
X160891000Y-114902045D01*
X160891000Y-114895047D01*
X161399000Y-114895047D01*
X161402973Y-114908578D01*
X161410768Y-114909698D01*
X161537342Y-114872446D01*
X161548710Y-114867853D01*
X161721666Y-114777434D01*
X161731928Y-114770718D01*
X161884020Y-114648432D01*
X161892786Y-114639848D01*
X162018236Y-114490344D01*
X162025160Y-114480233D01*
X162119184Y-114309202D01*
X162124012Y-114297938D01*
X162183025Y-114111905D01*
X162185573Y-114099916D01*
X162201980Y-113953643D01*
X162198525Y-113941876D01*
X162197135Y-113940671D01*
X162189452Y-113939000D01*
X161417115Y-113939000D01*
X161401876Y-113943475D01*
X161400671Y-113944865D01*
X161399000Y-113952548D01*
X161399000Y-114895047D01*
X160891000Y-114895047D01*
X160891000Y-113957115D01*
X160886525Y-113941876D01*
X160885135Y-113940671D01*
X160877452Y-113939000D01*
X160105291Y-113939000D01*
X160090864Y-113943236D01*
X160088803Y-113955589D01*
X157361762Y-113955589D01*
X157361980Y-113953643D01*
X157358525Y-113941876D01*
X157357135Y-113940671D01*
X157349452Y-113939000D01*
X156577115Y-113939000D01*
X156561876Y-113943475D01*
X156560671Y-113944865D01*
X156559000Y-113952548D01*
X156559000Y-114895047D01*
X156051000Y-114895047D01*
X156051000Y-113957115D01*
X156046525Y-113941876D01*
X156045135Y-113940671D01*
X156037452Y-113939000D01*
X155265291Y-113939000D01*
X155250864Y-113943236D01*
X155248803Y-113955589D01*
X154594296Y-113955589D01*
X154594718Y-113955245D01*
X154595574Y-113954554D01*
X154633010Y-113924669D01*
X163742001Y-113924669D01*
X163742371Y-113931490D01*
X163747895Y-113982352D01*
X163751521Y-113997604D01*
X163796676Y-114118054D01*
X163805214Y-114133649D01*
X163881715Y-114235724D01*
X163894276Y-114248285D01*
X163996351Y-114324786D01*
X164011946Y-114333324D01*
X164132394Y-114378478D01*
X164147649Y-114382105D01*
X164198514Y-114387631D01*
X164205328Y-114388000D01*
X164827885Y-114388000D01*
X164843124Y-114383525D01*
X164844329Y-114382135D01*
X164846000Y-114374452D01*
X164846000Y-113302115D01*
X164841525Y-113286876D01*
X164840135Y-113285671D01*
X164832452Y-113284000D01*
X163760116Y-113284000D01*
X163744877Y-113288475D01*
X163743672Y-113289865D01*
X163742001Y-113297548D01*
X163742001Y-113924669D01*
X154633010Y-113924669D01*
X154634773Y-113923262D01*
X154637277Y-113920758D01*
X154637995Y-113920116D01*
X154642328Y-113916415D01*
X154675862Y-113889065D01*
X154705088Y-113853737D01*
X154713077Y-113844958D01*
X155103395Y-113454640D01*
X155165707Y-113420614D01*
X155220990Y-113424568D01*
X155221441Y-113422493D01*
X155235874Y-113425633D01*
X155236522Y-113425679D01*
X155236774Y-113425828D01*
X155260548Y-113431000D01*
X157344709Y-113431000D01*
X157359136Y-113426764D01*
X157361197Y-113414411D01*
X157348473Y-113284639D01*
X157346090Y-113272604D01*
X157289686Y-113085785D01*
X157282980Y-113069516D01*
X157275514Y-112998913D01*
X157307404Y-112935481D01*
X157368525Y-112899360D01*
X157399473Y-112895500D01*
X160050574Y-112895500D01*
X160118695Y-112915502D01*
X160165188Y-112969158D01*
X160175292Y-113039432D01*
X160167780Y-113066171D01*
X160167850Y-113066193D01*
X160167186Y-113068285D01*
X160166386Y-113071134D01*
X160165988Y-113072062D01*
X160106975Y-113258095D01*
X160104427Y-113270084D01*
X160088020Y-113416357D01*
X160091475Y-113428124D01*
X160092865Y-113429329D01*
X160100548Y-113431000D01*
X162184709Y-113431000D01*
X162199136Y-113426764D01*
X162201197Y-113414411D01*
X162188473Y-113284639D01*
X162186090Y-113272604D01*
X162129686Y-113085785D01*
X162122980Y-113069516D01*
X162115514Y-112998913D01*
X162147404Y-112935481D01*
X162208525Y-112899360D01*
X162239473Y-112895500D01*
X162726757Y-112895500D01*
X162740364Y-112896237D01*
X162771862Y-112899659D01*
X162771867Y-112899659D01*
X162777988Y-112900324D01*
X162804238Y-112898027D01*
X162827988Y-112895950D01*
X162832814Y-112895621D01*
X162835286Y-112895500D01*
X162838369Y-112895500D01*
X162850338Y-112894326D01*
X162881106Y-112891310D01*
X162882419Y-112891188D01*
X162926684Y-112887315D01*
X162975013Y-112883087D01*
X162980132Y-112881600D01*
X162985433Y-112881080D01*
X163074434Y-112854209D01*
X163075567Y-112853874D01*
X163159014Y-112829630D01*
X163159018Y-112829628D01*
X163164936Y-112827909D01*
X163169668Y-112825456D01*
X163174769Y-112823916D01*
X163180212Y-112821022D01*
X163256860Y-112780269D01*
X163258026Y-112779657D01*
X163335053Y-112739729D01*
X163340526Y-112736892D01*
X163344689Y-112733569D01*
X163349396Y-112731066D01*
X163421518Y-112672245D01*
X163422374Y-112671554D01*
X163461573Y-112640262D01*
X163464077Y-112637758D01*
X163464795Y-112637116D01*
X163469128Y-112633415D01*
X163502662Y-112606065D01*
X163518917Y-112586417D01*
X163577750Y-112546680D01*
X163648729Y-112545059D01*
X163709316Y-112582069D01*
X163740276Y-112645959D01*
X163742000Y-112666734D01*
X163742000Y-112757885D01*
X163746475Y-112773124D01*
X163747865Y-112774329D01*
X163755548Y-112776000D01*
X164827885Y-112776000D01*
X164843124Y-112771525D01*
X164844329Y-112770135D01*
X164846000Y-112762452D01*
X164846000Y-112757885D01*
X165354000Y-112757885D01*
X165358475Y-112773124D01*
X165359865Y-112774329D01*
X165367548Y-112776000D01*
X166439884Y-112776000D01*
X166455123Y-112771525D01*
X166456328Y-112770135D01*
X166457999Y-112762452D01*
X166457999Y-112135331D01*
X166457629Y-112128510D01*
X166452105Y-112077648D01*
X166448479Y-112062396D01*
X166403324Y-111941946D01*
X166394786Y-111926351D01*
X166318285Y-111824276D01*
X166305724Y-111811715D01*
X166203649Y-111735214D01*
X166188054Y-111726676D01*
X166067606Y-111681522D01*
X166052351Y-111677895D01*
X166001486Y-111672369D01*
X165994672Y-111672000D01*
X165372115Y-111672000D01*
X165356876Y-111676475D01*
X165355671Y-111677865D01*
X165354000Y-111685548D01*
X165354000Y-112757885D01*
X164846000Y-112757885D01*
X164846000Y-111690116D01*
X164841525Y-111674877D01*
X164840135Y-111673672D01*
X164832452Y-111672001D01*
X164734023Y-111672001D01*
X164665902Y-111651999D01*
X164619409Y-111598343D01*
X164609305Y-111528069D01*
X164638799Y-111463489D01*
X164644928Y-111456906D01*
X164871229Y-111230605D01*
X164933541Y-111196579D01*
X164960324Y-111193700D01*
X169239169Y-111193700D01*
X169242225Y-111193400D01*
X169242232Y-111193400D01*
X169300740Y-111187663D01*
X169386233Y-111179280D01*
X169392134Y-111177498D01*
X169392136Y-111177498D01*
X169465453Y-111155362D01*
X169575569Y-111122116D01*
X169750196Y-111029266D01*
X169846716Y-110950546D01*
X169898687Y-110908160D01*
X169898690Y-110908157D01*
X169903462Y-110904265D01*
X169912423Y-110893433D01*
X170025601Y-110756625D01*
X170025603Y-110756621D01*
X170029530Y-110751875D01*
X170123598Y-110577901D01*
X170182082Y-110388968D01*
X170182897Y-110381213D01*
X170202111Y-110198404D01*
X170202111Y-110198402D01*
X170202755Y-110192275D01*
X170188375Y-110034263D01*
X170185389Y-110001451D01*
X170185388Y-110001448D01*
X170184830Y-109995312D01*
X170181954Y-109985538D01*
X170130730Y-109811494D01*
X170128990Y-109805581D01*
X170122220Y-109792630D01*
X170040213Y-109635768D01*
X170037360Y-109630310D01*
X169913432Y-109476175D01*
X169907121Y-109470879D01*
X169868883Y-109438794D01*
X169761926Y-109349046D01*
X169756528Y-109346079D01*
X169756523Y-109346075D01*
X169594008Y-109256733D01*
X169594009Y-109256733D01*
X169588613Y-109253767D01*
X169582746Y-109251906D01*
X169582744Y-109251905D01*
X169405964Y-109195827D01*
X169405963Y-109195827D01*
X169400094Y-109193965D01*
X169246173Y-109176700D01*
X164552250Y-109176700D01*
X164538642Y-109175963D01*
X164538062Y-109175900D01*
X164501012Y-109171875D01*
X164450970Y-109176253D01*
X164446188Y-109176579D01*
X164443710Y-109176700D01*
X164440631Y-109176700D01*
X164437577Y-109176999D01*
X164437566Y-109177000D01*
X164397929Y-109180887D01*
X164396615Y-109181009D01*
X164361088Y-109184117D01*
X164303987Y-109189113D01*
X164298868Y-109190600D01*
X164293567Y-109191120D01*
X164204566Y-109217991D01*
X164203433Y-109218326D01*
X164119986Y-109242570D01*
X164119982Y-109242572D01*
X164114064Y-109244291D01*
X164109332Y-109246744D01*
X164104231Y-109248284D01*
X164098788Y-109251178D01*
X164022140Y-109291931D01*
X164020974Y-109292543D01*
X163943947Y-109332471D01*
X163938474Y-109335308D01*
X163934311Y-109338631D01*
X163929604Y-109341134D01*
X163924829Y-109345028D01*
X163924828Y-109345029D01*
X163857502Y-109399939D01*
X163856475Y-109400767D01*
X163820192Y-109429731D01*
X163820187Y-109429736D01*
X163817428Y-109431938D01*
X163814927Y-109434439D01*
X163814209Y-109435081D01*
X163809861Y-109438794D01*
X163776338Y-109466135D01*
X163772415Y-109470877D01*
X163772413Y-109470879D01*
X163747103Y-109501473D01*
X163739113Y-109510253D01*
X162407771Y-110841595D01*
X162345459Y-110875621D01*
X162318676Y-110878500D01*
X155306643Y-110878500D01*
X155293036Y-110877763D01*
X155261538Y-110874341D01*
X155261533Y-110874341D01*
X155255412Y-110873676D01*
X155229162Y-110875973D01*
X155205412Y-110878050D01*
X155200586Y-110878379D01*
X155198114Y-110878500D01*
X155195031Y-110878500D01*
X155183062Y-110879674D01*
X155152294Y-110882690D01*
X155150981Y-110882812D01*
X155106716Y-110886685D01*
X155058387Y-110890913D01*
X155053268Y-110892400D01*
X155047967Y-110892920D01*
X154958966Y-110919791D01*
X154957833Y-110920126D01*
X154874386Y-110944370D01*
X154874382Y-110944372D01*
X154868464Y-110946091D01*
X154863732Y-110948544D01*
X154858631Y-110950084D01*
X154853188Y-110952978D01*
X154776540Y-110993731D01*
X154775374Y-110994343D01*
X154702421Y-111032159D01*
X154692874Y-111037108D01*
X154688711Y-111040431D01*
X154684004Y-111042934D01*
X154611882Y-111101755D01*
X154611026Y-111102446D01*
X154571827Y-111133738D01*
X154569323Y-111136242D01*
X154568605Y-111136884D01*
X154564272Y-111140585D01*
X154530738Y-111167935D01*
X154501509Y-111203267D01*
X154493528Y-111212037D01*
X154021579Y-111683987D01*
X153580971Y-112124595D01*
X153518658Y-112158620D01*
X153491875Y-112161500D01*
X153491860Y-112161500D01*
X153423739Y-112141498D01*
X153377246Y-112087842D01*
X153367142Y-112017568D01*
X153369400Y-112007986D01*
X153369049Y-112007911D01*
X153373358Y-111987810D01*
X153382672Y-111896903D01*
X153382929Y-111891874D01*
X153378525Y-111876876D01*
X153377135Y-111875671D01*
X153369452Y-111874000D01*
X152272000Y-111874000D01*
X152203879Y-111853998D01*
X152157386Y-111800342D01*
X152146000Y-111748000D01*
X152146000Y-111492000D01*
X152166002Y-111423879D01*
X152219658Y-111377386D01*
X152272000Y-111366000D01*
X153364885Y-111366000D01*
X153380124Y-111361525D01*
X153381329Y-111360135D01*
X153383000Y-111352452D01*
X153383000Y-111349562D01*
X153382663Y-111343047D01*
X153373106Y-111250943D01*
X153370212Y-111237544D01*
X153320619Y-111088893D01*
X153314446Y-111075717D01*
X153280432Y-111020749D01*
X153261595Y-110952297D01*
X153282757Y-110884528D01*
X153298479Y-110865356D01*
X153424980Y-110738854D01*
X153435123Y-110729752D01*
X153459818Y-110709897D01*
X153459819Y-110709896D01*
X153464625Y-110706032D01*
X153496892Y-110667578D01*
X153500072Y-110663931D01*
X153501715Y-110662119D01*
X153503909Y-110659925D01*
X153531242Y-110626651D01*
X153531948Y-110625800D01*
X153578438Y-110570396D01*
X153591754Y-110554526D01*
X153594322Y-110549856D01*
X153597703Y-110545739D01*
X153641577Y-110463914D01*
X153642206Y-110462755D01*
X153684062Y-110386619D01*
X153684065Y-110386611D01*
X153687033Y-110381213D01*
X153688645Y-110376131D01*
X153691162Y-110371437D01*
X153718347Y-110282523D01*
X153718739Y-110281265D01*
X153744972Y-110198567D01*
X153746835Y-110192694D01*
X153747429Y-110187403D01*
X153748988Y-110182302D01*
X153758390Y-110089737D01*
X153758525Y-110088470D01*
X153763708Y-110042270D01*
X153763708Y-110042265D01*
X153764100Y-110038773D01*
X153764100Y-110035248D01*
X153764155Y-110034263D01*
X153764604Y-110028559D01*
X153768352Y-109991666D01*
X153768352Y-109991661D01*
X153768974Y-109985538D01*
X153764659Y-109939891D01*
X153764100Y-109928033D01*
X153764100Y-109662267D01*
X153784102Y-109594146D01*
X153837758Y-109547653D01*
X153908032Y-109537549D01*
X153927780Y-109542033D01*
X153944448Y-109547257D01*
X153957494Y-109549869D01*
X154021321Y-109555734D01*
X154027109Y-109556000D01*
X154083685Y-109556000D01*
X154098924Y-109551525D01*
X154100129Y-109550135D01*
X154101800Y-109542452D01*
X154101800Y-109537884D01*
X154609800Y-109537884D01*
X154614275Y-109553123D01*
X154615665Y-109554328D01*
X154623348Y-109555999D01*
X154684505Y-109555999D01*
X154690254Y-109555736D01*
X154754115Y-109549868D01*
X154767151Y-109547257D01*
X154917043Y-109500285D01*
X154930788Y-109494079D01*
X155064374Y-109413176D01*
X155076243Y-109403869D01*
X155186669Y-109293443D01*
X155195976Y-109281574D01*
X155276879Y-109147988D01*
X155283085Y-109134243D01*
X155330056Y-108984356D01*
X155332669Y-108971306D01*
X155337713Y-108916414D01*
X155334325Y-108904876D01*
X155332935Y-108903671D01*
X155325252Y-108902000D01*
X154627915Y-108902000D01*
X154612676Y-108906475D01*
X154611471Y-108907865D01*
X154609800Y-108915548D01*
X154609800Y-109537884D01*
X154101800Y-109537884D01*
X154101800Y-108520000D01*
X154121802Y-108451879D01*
X154175458Y-108405386D01*
X154227800Y-108394000D01*
X155320684Y-108394000D01*
X155335923Y-108389525D01*
X155337128Y-108388135D01*
X155338091Y-108383706D01*
X155332668Y-108324685D01*
X155330057Y-108311649D01*
X155283085Y-108161757D01*
X155276879Y-108148012D01*
X155195976Y-108014426D01*
X155186669Y-108002557D01*
X155096561Y-107912449D01*
X155062535Y-107850137D01*
X155067600Y-107779322D01*
X155096561Y-107734259D01*
X155192439Y-107638381D01*
X155228926Y-107578134D01*
X155233710Y-107570235D01*
X155267430Y-107533567D01*
X155270193Y-107531559D01*
X155280105Y-107525049D01*
X155318162Y-107502542D01*
X155332483Y-107488221D01*
X155347517Y-107475380D01*
X155363907Y-107463472D01*
X155365177Y-107465220D01*
X155418594Y-107438198D01*
X155441491Y-107436100D01*
X155492687Y-107436100D01*
X155499139Y-107434728D01*
X155499144Y-107434728D01*
X155586087Y-107416247D01*
X155679488Y-107396394D01*
X155685519Y-107393709D01*
X155847922Y-107321403D01*
X155847924Y-107321402D01*
X155853952Y-107318718D01*
X156008453Y-107206466D01*
X156070895Y-107137117D01*
X156131821Y-107069452D01*
X156131822Y-107069451D01*
X156136240Y-107064544D01*
X156231727Y-106899156D01*
X156290742Y-106717528D01*
X156292147Y-106704165D01*
X156310014Y-106534165D01*
X156310704Y-106527600D01*
X156293522Y-106364120D01*
X156291432Y-106344235D01*
X156291432Y-106344233D01*
X156290742Y-106337672D01*
X156231727Y-106156044D01*
X156136240Y-105990656D01*
X156062276Y-105908510D01*
X156012875Y-105853645D01*
X156012874Y-105853644D01*
X156008453Y-105848734D01*
X155853952Y-105736482D01*
X155847924Y-105733798D01*
X155847922Y-105733797D01*
X155685519Y-105661491D01*
X155685518Y-105661491D01*
X155679488Y-105658806D01*
X155586087Y-105638953D01*
X155499144Y-105620472D01*
X155499139Y-105620472D01*
X155492687Y-105619100D01*
X155438827Y-105619100D01*
X155370706Y-105599098D01*
X155329708Y-105556100D01*
X155275942Y-105462974D01*
X155275939Y-105462969D01*
X155272640Y-105457256D01*
X155256075Y-105438858D01*
X155149275Y-105320245D01*
X155149274Y-105320244D01*
X155144853Y-105315334D01*
X155014265Y-105220456D01*
X154995694Y-105206963D01*
X154995693Y-105206962D01*
X154990352Y-105203082D01*
X154984324Y-105200398D01*
X154984322Y-105200397D01*
X154821919Y-105128091D01*
X154821918Y-105128091D01*
X154815888Y-105125406D01*
X154722488Y-105105553D01*
X154635544Y-105087072D01*
X154635539Y-105087072D01*
X154629087Y-105085700D01*
X154438113Y-105085700D01*
X154431661Y-105087072D01*
X154431656Y-105087072D01*
X154344712Y-105105553D01*
X154251312Y-105125406D01*
X154245282Y-105128091D01*
X154245281Y-105128091D01*
X154082878Y-105200397D01*
X154082876Y-105200398D01*
X154076848Y-105203082D01*
X154071507Y-105206962D01*
X154071506Y-105206963D01*
X153962947Y-105285836D01*
X153896079Y-105309695D01*
X153888886Y-105309900D01*
X153443968Y-105309900D01*
X153432785Y-105309373D01*
X153425292Y-105307698D01*
X153417366Y-105307947D01*
X153417365Y-105307947D01*
X153357202Y-105309838D01*
X153353244Y-105309900D01*
X153325344Y-105309900D01*
X153321354Y-105310404D01*
X153309520Y-105311336D01*
X153265311Y-105312726D01*
X153257695Y-105314939D01*
X153257693Y-105314939D01*
X153245852Y-105318379D01*
X153226493Y-105322388D01*
X153225183Y-105322554D01*
X153206403Y-105324926D01*
X153199037Y-105327842D01*
X153199031Y-105327844D01*
X153165298Y-105341200D01*
X153154068Y-105345045D01*
X153119217Y-105355170D01*
X153111607Y-105357381D01*
X153104784Y-105361416D01*
X153094166Y-105367695D01*
X153076413Y-105376392D01*
X153068855Y-105379385D01*
X153057583Y-105383848D01*
X153051168Y-105388509D01*
X153021812Y-105409837D01*
X153011895Y-105416351D01*
X152973838Y-105438858D01*
X152959517Y-105453179D01*
X152944484Y-105466019D01*
X152928093Y-105477928D01*
X152901716Y-105509813D01*
X152899912Y-105511993D01*
X152891922Y-105520774D01*
X152363341Y-106049354D01*
X152355063Y-106056887D01*
X152348582Y-106061000D01*
X152343154Y-106066781D01*
X152343152Y-106066782D01*
X152323492Y-106087718D01*
X152269321Y-106121699D01*
X152194150Y-106145256D01*
X152194148Y-106145257D01*
X152186901Y-106147528D01*
X152040219Y-106236361D01*
X151918961Y-106357619D01*
X151830128Y-106504301D01*
X151778847Y-106667938D01*
X151772100Y-106741365D01*
X151772101Y-107254634D01*
X151778847Y-107328062D01*
X151780846Y-107334440D01*
X151780846Y-107334441D01*
X151822087Y-107466039D01*
X151830128Y-107491699D01*
X151918961Y-107638381D01*
X152014485Y-107733905D01*
X152048511Y-107796217D01*
X152043446Y-107867032D01*
X152014485Y-107912095D01*
X151918961Y-108007619D01*
X151830128Y-108154301D01*
X151778847Y-108317938D01*
X151772100Y-108391365D01*
X151772100Y-108394266D01*
X151771968Y-108397140D01*
X151771527Y-108397120D01*
X151767159Y-108425333D01*
X151767509Y-108425407D01*
X151766228Y-108431434D01*
X151764365Y-108437306D01*
X151747100Y-108591227D01*
X151747100Y-109531041D01*
X151727098Y-109599162D01*
X151718465Y-109611016D01*
X151711914Y-109618992D01*
X151707997Y-109623761D01*
X151614538Y-109798063D01*
X151556713Y-109987198D01*
X151556090Y-109993333D01*
X151537517Y-110176177D01*
X151536726Y-110183962D01*
X151554892Y-110376131D01*
X151555339Y-110380862D01*
X151554180Y-110380972D01*
X151549614Y-110429627D01*
X151580603Y-110467996D01*
X151584995Y-110480343D01*
X151611841Y-110570396D01*
X151614714Y-110575845D01*
X151681080Y-110701719D01*
X151695157Y-110771306D01*
X151669378Y-110837457D01*
X151658796Y-110849501D01*
X151576017Y-110932425D01*
X151567880Y-110942728D01*
X151509963Y-110983790D01*
X151439040Y-110987021D01*
X151377629Y-110951396D01*
X151345227Y-110888224D01*
X151342999Y-110864635D01*
X151342999Y-110570331D01*
X151342629Y-110563510D01*
X151338984Y-110529946D01*
X151346915Y-110485710D01*
X151319182Y-110456720D01*
X151313098Y-110443029D01*
X151288324Y-110376946D01*
X151279786Y-110361351D01*
X151203285Y-110259276D01*
X151190724Y-110246715D01*
X151088649Y-110170214D01*
X151073054Y-110161676D01*
X150952606Y-110116522D01*
X150937351Y-110112895D01*
X150886486Y-110107369D01*
X150879672Y-110107000D01*
X150107115Y-110107000D01*
X150091876Y-110111475D01*
X150090671Y-110112865D01*
X150089000Y-110120548D01*
X150089000Y-111493000D01*
X150068998Y-111561121D01*
X150015342Y-111607614D01*
X149963000Y-111619000D01*
X148345116Y-111619000D01*
X148329877Y-111623475D01*
X148313427Y-111642459D01*
X148298383Y-111670012D01*
X148236072Y-111704040D01*
X148171186Y-111701022D01*
X148120767Y-111685028D01*
X148120766Y-111685028D01*
X148114894Y-111683165D01*
X148109598Y-111682571D01*
X148104502Y-111681013D01*
X148011943Y-111671610D01*
X148010807Y-111671489D01*
X147977192Y-111667719D01*
X147964470Y-111666292D01*
X147964466Y-111666292D01*
X147960973Y-111665900D01*
X147957446Y-111665900D01*
X147956461Y-111665845D01*
X147950781Y-111665398D01*
X147921375Y-111662411D01*
X147913863Y-111661648D01*
X147913861Y-111661648D01*
X147907738Y-111661026D01*
X147865459Y-111665023D01*
X147862091Y-111665341D01*
X147850233Y-111665900D01*
X145128277Y-111665900D01*
X145060156Y-111645898D01*
X145013663Y-111592242D01*
X145010295Y-111584129D01*
X144988768Y-111526705D01*
X144988767Y-111526703D01*
X144985615Y-111518295D01*
X144898261Y-111401739D01*
X144781705Y-111314385D01*
X144645316Y-111263255D01*
X144583134Y-111256500D01*
X142486866Y-111256500D01*
X142424684Y-111263255D01*
X142288295Y-111314385D01*
X142171739Y-111401739D01*
X142084385Y-111518295D01*
X142033255Y-111654684D01*
X142026500Y-111716866D01*
X142026500Y-113120089D01*
X142006498Y-113188210D01*
X141952842Y-113234703D01*
X141912796Y-113245488D01*
X141869895Y-113249695D01*
X141814567Y-113255120D01*
X141808666Y-113256902D01*
X141808664Y-113256902D01*
X141804713Y-113258095D01*
X141625231Y-113312284D01*
X141450604Y-113405134D01*
X141389904Y-113454640D01*
X141302113Y-113526240D01*
X141302110Y-113526243D01*
X141297338Y-113530135D01*
X141293411Y-113534882D01*
X141293409Y-113534884D01*
X141175199Y-113677775D01*
X141175197Y-113677779D01*
X141171270Y-113682525D01*
X141077202Y-113856499D01*
X141018718Y-114045432D01*
X141018074Y-114051557D01*
X141018074Y-114051558D01*
X141004282Y-114182787D01*
X140998045Y-114242125D01*
X139658076Y-114242125D01*
X139651576Y-111092885D01*
X148327000Y-111092885D01*
X148331475Y-111108124D01*
X148332865Y-111109329D01*
X148340548Y-111111000D01*
X149562885Y-111111000D01*
X149578124Y-111106525D01*
X149579329Y-111105135D01*
X149581000Y-111097452D01*
X149581000Y-110125116D01*
X149576525Y-110109877D01*
X149575135Y-110108672D01*
X149567452Y-110107001D01*
X148790331Y-110107001D01*
X148783510Y-110107371D01*
X148732648Y-110112895D01*
X148717396Y-110116521D01*
X148596946Y-110161676D01*
X148581351Y-110170214D01*
X148479276Y-110246715D01*
X148466715Y-110259276D01*
X148390214Y-110361351D01*
X148381676Y-110376946D01*
X148336522Y-110497394D01*
X148332895Y-110512649D01*
X148327369Y-110563514D01*
X148327000Y-110570328D01*
X148327000Y-111092885D01*
X139651576Y-111092885D01*
X139628414Y-99871586D01*
X144433087Y-99871586D01*
X144436475Y-99883124D01*
X144437865Y-99884329D01*
X144445548Y-99886000D01*
X145142885Y-99886000D01*
X145158124Y-99881525D01*
X145159329Y-99880135D01*
X145161000Y-99872452D01*
X145161000Y-99250116D01*
X145156525Y-99234877D01*
X145155135Y-99233672D01*
X145147452Y-99232001D01*
X145086295Y-99232001D01*
X145080546Y-99232264D01*
X145016685Y-99238132D01*
X145003649Y-99240743D01*
X144853757Y-99287715D01*
X144840012Y-99293921D01*
X144706426Y-99374824D01*
X144694557Y-99384131D01*
X144584131Y-99494557D01*
X144574824Y-99506426D01*
X144493921Y-99640012D01*
X144487715Y-99653757D01*
X144440744Y-99803644D01*
X144438131Y-99816694D01*
X144433087Y-99871586D01*
X139628414Y-99871586D01*
X139620550Y-96061586D01*
X146338087Y-96061586D01*
X146341475Y-96073124D01*
X146342865Y-96074329D01*
X146350548Y-96076000D01*
X147047885Y-96076000D01*
X147063124Y-96071525D01*
X147064329Y-96070135D01*
X147066000Y-96062452D01*
X147066000Y-96057885D01*
X147574000Y-96057885D01*
X147578475Y-96073124D01*
X147579865Y-96074329D01*
X147587548Y-96076000D01*
X148284884Y-96076000D01*
X148300123Y-96071525D01*
X148301328Y-96070135D01*
X148302291Y-96065706D01*
X148296868Y-96006685D01*
X148294257Y-95993649D01*
X148247285Y-95843757D01*
X148241079Y-95830012D01*
X148160176Y-95696426D01*
X148150869Y-95684557D01*
X148040443Y-95574131D01*
X148028574Y-95564824D01*
X147894988Y-95483921D01*
X147881243Y-95477715D01*
X147731356Y-95430744D01*
X147718306Y-95428131D01*
X147654479Y-95422266D01*
X147648691Y-95422000D01*
X147592115Y-95422000D01*
X147576876Y-95426475D01*
X147575671Y-95427865D01*
X147574000Y-95435548D01*
X147574000Y-96057885D01*
X147066000Y-96057885D01*
X147066000Y-95440116D01*
X147061525Y-95424877D01*
X147060135Y-95423672D01*
X147052452Y-95422001D01*
X146991295Y-95422001D01*
X146985546Y-95422264D01*
X146921685Y-95428132D01*
X146908649Y-95430743D01*
X146758757Y-95477715D01*
X146745012Y-95483921D01*
X146611426Y-95564824D01*
X146599557Y-95574131D01*
X146489131Y-95684557D01*
X146479824Y-95696426D01*
X146398921Y-95830012D01*
X146392715Y-95843757D01*
X146345744Y-95993644D01*
X146343131Y-96006694D01*
X146338087Y-96061586D01*
X139620550Y-96061586D01*
X139610274Y-91082799D01*
X139630136Y-91014637D01*
X139683695Y-90968034D01*
X139735978Y-90956539D01*
X142246475Y-90950631D01*
X143615838Y-90947409D01*
X143680273Y-90964956D01*
X143686694Y-90968753D01*
X143692960Y-90973614D01*
X143733540Y-90991174D01*
X143744188Y-90996391D01*
X143773123Y-91012298D01*
X143782940Y-91017695D01*
X143790616Y-91019666D01*
X143790619Y-91019667D01*
X143802562Y-91022733D01*
X143821267Y-91029137D01*
X143839855Y-91037181D01*
X143847678Y-91038420D01*
X143847688Y-91038423D01*
X143883524Y-91044099D01*
X143895144Y-91046505D01*
X143930289Y-91055528D01*
X143937970Y-91057500D01*
X143958224Y-91057500D01*
X143977934Y-91059051D01*
X143997943Y-91062220D01*
X144005835Y-91061474D01*
X144041961Y-91058059D01*
X144053819Y-91057500D01*
X144452800Y-91057500D01*
X144520921Y-91077502D01*
X144540147Y-91093843D01*
X144540420Y-91093540D01*
X144545332Y-91097963D01*
X144549747Y-91102866D01*
X144555825Y-91107282D01*
X144619677Y-91153673D01*
X144704248Y-91215118D01*
X144710276Y-91217802D01*
X144710278Y-91217803D01*
X144767494Y-91243277D01*
X144878712Y-91292794D01*
X144972112Y-91312647D01*
X145059056Y-91331128D01*
X145059061Y-91331128D01*
X145065513Y-91332500D01*
X145256487Y-91332500D01*
X145262939Y-91331128D01*
X145262944Y-91331128D01*
X145349888Y-91312647D01*
X145443288Y-91292794D01*
X145554506Y-91243277D01*
X145611722Y-91217803D01*
X145611724Y-91217802D01*
X145617752Y-91215118D01*
X145772253Y-91102866D01*
X145790046Y-91083105D01*
X145879683Y-90983553D01*
X145940129Y-90946313D01*
X145973023Y-90941863D01*
X148128550Y-90936791D01*
X148196716Y-90956633D01*
X148243335Y-91010179D01*
X148253604Y-91080429D01*
X148219938Y-91149842D01*
X148155629Y-91217138D01*
X148152720Y-91221403D01*
X148152714Y-91221411D01*
X148104020Y-91292794D01*
X148029743Y-91401680D01*
X147935688Y-91604305D01*
X147875989Y-91819570D01*
X147852251Y-92041695D01*
X147852548Y-92046848D01*
X147852548Y-92046851D01*
X147859822Y-92172999D01*
X147865110Y-92264715D01*
X147866247Y-92269761D01*
X147866248Y-92269767D01*
X147872949Y-92299500D01*
X147914222Y-92482639D01*
X147998266Y-92689616D01*
X148035685Y-92750678D01*
X148112291Y-92875688D01*
X148114987Y-92880088D01*
X148261250Y-93048938D01*
X148342235Y-93116173D01*
X148428736Y-93187987D01*
X148433126Y-93191632D01*
X148626000Y-93304338D01*
X148630825Y-93306180D01*
X148630826Y-93306181D01*
X148639761Y-93309593D01*
X148834692Y-93384030D01*
X148839760Y-93385061D01*
X148839763Y-93385062D01*
X148912095Y-93399778D01*
X149053597Y-93428567D01*
X149058772Y-93428757D01*
X149058774Y-93428757D01*
X149271673Y-93436564D01*
X149271677Y-93436564D01*
X149276837Y-93436753D01*
X149281957Y-93436097D01*
X149281959Y-93436097D01*
X149493288Y-93409025D01*
X149493289Y-93409025D01*
X149498416Y-93408368D01*
X149553013Y-93391988D01*
X149707429Y-93345661D01*
X149707434Y-93345659D01*
X149712384Y-93344174D01*
X149912994Y-93245896D01*
X149984941Y-93194577D01*
X150052014Y-93171303D01*
X150121023Y-93187987D01*
X150170057Y-93239331D01*
X150183548Y-93309034D01*
X150161813Y-93366540D01*
X150162360Y-93366856D01*
X150118559Y-93442721D01*
X150078335Y-93512392D01*
X150066873Y-93532244D01*
X150007858Y-93713872D01*
X150007168Y-93720433D01*
X150007168Y-93720435D01*
X150002939Y-93760669D01*
X149987896Y-93903800D01*
X149988586Y-93910365D01*
X150004524Y-94062002D01*
X150007858Y-94093728D01*
X150009898Y-94100006D01*
X150043026Y-94201964D01*
X150045054Y-94272932D01*
X150008391Y-94333729D01*
X149944679Y-94365055D01*
X149923193Y-94366900D01*
X149840713Y-94366900D01*
X149834261Y-94368272D01*
X149834256Y-94368272D01*
X149747313Y-94386753D01*
X149653912Y-94406606D01*
X149647882Y-94409291D01*
X149647881Y-94409291D01*
X149485478Y-94481597D01*
X149485476Y-94481598D01*
X149479448Y-94484282D01*
X149474107Y-94488162D01*
X149474106Y-94488163D01*
X149472266Y-94489500D01*
X149324947Y-94596534D01*
X149320526Y-94601444D01*
X149320525Y-94601445D01*
X149237024Y-94694183D01*
X149197160Y-94738456D01*
X149193859Y-94744174D01*
X149122334Y-94868059D01*
X149101673Y-94903844D01*
X149042658Y-95085472D01*
X149041968Y-95092033D01*
X149041968Y-95092035D01*
X149031538Y-95191270D01*
X149022696Y-95275400D01*
X149023386Y-95281965D01*
X149041527Y-95454564D01*
X149042658Y-95465328D01*
X149101673Y-95646956D01*
X149158242Y-95744935D01*
X149160819Y-95749399D01*
X149177700Y-95812399D01*
X149177700Y-96427530D01*
X149176267Y-96446480D01*
X149175656Y-96450499D01*
X149173001Y-96467949D01*
X149173594Y-96475241D01*
X149173594Y-96475244D01*
X149177285Y-96520618D01*
X149177700Y-96530833D01*
X149177700Y-96538893D01*
X149178125Y-96542537D01*
X149180989Y-96567107D01*
X149181422Y-96571482D01*
X149185676Y-96623774D01*
X149187340Y-96644237D01*
X149189596Y-96651201D01*
X149190787Y-96657160D01*
X149192171Y-96663015D01*
X149193018Y-96670281D01*
X149217935Y-96738927D01*
X149219352Y-96743055D01*
X149223653Y-96756330D01*
X149241849Y-96812499D01*
X149245645Y-96818754D01*
X149248151Y-96824228D01*
X149250870Y-96829658D01*
X149253367Y-96836537D01*
X149257380Y-96842657D01*
X149257380Y-96842658D01*
X149293386Y-96897576D01*
X149295733Y-96901296D01*
X149309569Y-96924097D01*
X149327808Y-96992710D01*
X149306057Y-97060293D01*
X149275911Y-97091398D01*
X149248747Y-97111134D01*
X149244326Y-97116044D01*
X149244325Y-97116045D01*
X149132654Y-97240069D01*
X149120960Y-97253056D01*
X149117658Y-97258775D01*
X149117656Y-97258778D01*
X149067252Y-97346081D01*
X149015870Y-97395075D01*
X148946157Y-97408512D01*
X148876553Y-97379107D01*
X148841592Y-97349405D01*
X148836015Y-97344667D01*
X148829500Y-97341340D01*
X148824450Y-97337972D01*
X148819321Y-97334805D01*
X148813584Y-97330266D01*
X148747425Y-97299345D01*
X148743525Y-97297439D01*
X148730018Y-97290542D01*
X148678492Y-97264231D01*
X148671384Y-97262492D01*
X148665741Y-97260393D01*
X148659978Y-97258476D01*
X148653350Y-97255378D01*
X148644322Y-97253500D01*
X148581888Y-97240514D01*
X148577599Y-97239543D01*
X148506690Y-97222192D01*
X148501088Y-97221844D01*
X148501085Y-97221844D01*
X148495536Y-97221500D01*
X148495538Y-97221464D01*
X148491545Y-97221225D01*
X148487353Y-97220851D01*
X148480185Y-97219360D01*
X148413975Y-97221151D01*
X148402779Y-97221454D01*
X148399372Y-97221500D01*
X148209002Y-97221500D01*
X148140881Y-97201498D01*
X148094388Y-97147842D01*
X148084284Y-97077568D01*
X148113778Y-97012988D01*
X148119907Y-97006405D01*
X148150869Y-96975443D01*
X148160176Y-96963574D01*
X148241079Y-96829988D01*
X148247285Y-96816243D01*
X148294256Y-96666356D01*
X148296869Y-96653306D01*
X148301913Y-96598414D01*
X148298525Y-96586876D01*
X148297135Y-96585671D01*
X148289452Y-96584000D01*
X146355116Y-96584000D01*
X146339877Y-96588475D01*
X146338672Y-96589865D01*
X146337709Y-96594294D01*
X146343132Y-96653315D01*
X146345743Y-96666351D01*
X146392715Y-96816243D01*
X146398921Y-96829988D01*
X146479824Y-96963574D01*
X146489131Y-96975443D01*
X146579239Y-97065551D01*
X146613265Y-97127863D01*
X146608200Y-97198678D01*
X146579239Y-97243741D01*
X146483361Y-97339619D01*
X146394528Y-97486301D01*
X146343247Y-97649938D01*
X146336500Y-97723365D01*
X146336501Y-98236634D01*
X146336764Y-98239492D01*
X146336764Y-98239501D01*
X146338809Y-98261756D01*
X146343247Y-98310062D01*
X146345246Y-98316440D01*
X146345246Y-98316441D01*
X146390786Y-98461757D01*
X146394528Y-98473699D01*
X146483361Y-98620381D01*
X146584443Y-98721463D01*
X146618469Y-98783775D01*
X146613404Y-98854590D01*
X146584447Y-98899648D01*
X146318136Y-99165959D01*
X146309862Y-99173488D01*
X146303382Y-99177600D01*
X146297957Y-99183377D01*
X146256757Y-99227251D01*
X146254002Y-99230093D01*
X146234265Y-99249830D01*
X146231785Y-99253027D01*
X146224082Y-99262047D01*
X146193814Y-99294279D01*
X146192376Y-99292929D01*
X146144446Y-99329888D01*
X146073709Y-99335963D01*
X146033462Y-99320249D01*
X145989992Y-99293923D01*
X145976243Y-99287715D01*
X145826356Y-99240744D01*
X145813306Y-99238131D01*
X145749479Y-99232266D01*
X145743691Y-99232000D01*
X145687115Y-99232000D01*
X145671876Y-99236475D01*
X145670671Y-99237865D01*
X145669000Y-99245548D01*
X145669000Y-100268000D01*
X145648998Y-100336121D01*
X145595342Y-100382614D01*
X145543000Y-100394000D01*
X144450116Y-100394000D01*
X144434877Y-100398475D01*
X144433672Y-100399865D01*
X144432709Y-100404294D01*
X144438132Y-100463315D01*
X144440743Y-100476351D01*
X144487715Y-100626243D01*
X144493921Y-100639988D01*
X144574824Y-100773574D01*
X144584131Y-100785443D01*
X144674239Y-100875551D01*
X144708265Y-100937863D01*
X144703200Y-101008678D01*
X144674239Y-101053741D01*
X144578361Y-101149619D01*
X144489528Y-101296301D01*
X144438247Y-101459938D01*
X144431500Y-101533365D01*
X144431500Y-101536266D01*
X144431368Y-101539140D01*
X144430927Y-101539120D01*
X144426559Y-101567333D01*
X144426909Y-101567407D01*
X144425628Y-101573434D01*
X144423765Y-101579306D01*
X144423079Y-101585423D01*
X144423078Y-101585427D01*
X144417534Y-101634855D01*
X144406500Y-101733227D01*
X144406500Y-102094769D01*
X144406800Y-102097825D01*
X144406800Y-102097832D01*
X144411350Y-102144232D01*
X144420920Y-102241833D01*
X144422702Y-102247734D01*
X144422702Y-102247736D01*
X144426123Y-102259066D01*
X144431501Y-102295484D01*
X144431501Y-102301634D01*
X144431764Y-102304492D01*
X144431764Y-102304501D01*
X144433369Y-102321967D01*
X144438247Y-102375062D01*
X144440246Y-102381440D01*
X144440246Y-102381441D01*
X144482169Y-102515215D01*
X144489528Y-102538699D01*
X144578361Y-102685381D01*
X144673885Y-102780905D01*
X144707911Y-102843217D01*
X144702846Y-102914032D01*
X144673885Y-102959095D01*
X144578361Y-103054619D01*
X144489528Y-103201301D01*
X144487257Y-103208548D01*
X144487256Y-103208550D01*
X144472064Y-103257027D01*
X144438247Y-103364938D01*
X144431500Y-103438365D01*
X144431500Y-103442515D01*
X144431418Y-103443060D01*
X144431368Y-103444140D01*
X144431255Y-103444135D01*
X144425867Y-103479767D01*
X144422318Y-103491232D01*
X144401645Y-103687925D01*
X144419570Y-103884888D01*
X144421310Y-103890799D01*
X144421310Y-103890801D01*
X144426375Y-103908010D01*
X144431501Y-103943584D01*
X144431501Y-103951634D01*
X144438247Y-104025062D01*
X144489528Y-104188699D01*
X144578361Y-104335381D01*
X144699619Y-104456639D01*
X144706121Y-104460576D01*
X144706120Y-104460576D01*
X144839801Y-104541536D01*
X144839804Y-104541537D01*
X144846301Y-104545472D01*
X144853551Y-104547744D01*
X144853553Y-104547745D01*
X144885974Y-104557905D01*
X144908990Y-104567721D01*
X145015787Y-104626433D01*
X145021662Y-104628297D01*
X145021665Y-104628298D01*
X145192418Y-104682464D01*
X145204306Y-104686235D01*
X145358227Y-104703500D01*
X145626700Y-104703500D01*
X145694821Y-104723502D01*
X145741314Y-104777158D01*
X145752700Y-104829500D01*
X145752700Y-105491530D01*
X145732698Y-105559651D01*
X145715872Y-105580549D01*
X145710583Y-105585847D01*
X145618539Y-105735171D01*
X145616234Y-105742119D01*
X145616234Y-105742120D01*
X145579243Y-105853645D01*
X145563315Y-105901665D01*
X145552700Y-106005269D01*
X145552701Y-106592730D01*
X145563584Y-106697629D01*
X145565763Y-106704160D01*
X145565764Y-106704165D01*
X145615190Y-106852311D01*
X145619098Y-106864026D01*
X145622954Y-106870257D01*
X145686655Y-106973197D01*
X145705493Y-107041649D01*
X145684332Y-107109419D01*
X145629891Y-107154990D01*
X145579511Y-107165500D01*
X145194524Y-107165500D01*
X145126403Y-107145498D01*
X145105429Y-107128595D01*
X144905405Y-106928571D01*
X144871379Y-106866259D01*
X144868500Y-106839476D01*
X144868500Y-105781866D01*
X144861745Y-105719684D01*
X144810615Y-105583295D01*
X144723261Y-105466739D01*
X144606705Y-105379385D01*
X144470316Y-105328255D01*
X144408134Y-105321500D01*
X142611866Y-105321500D01*
X142549684Y-105328255D01*
X142413295Y-105379385D01*
X142296739Y-105466739D01*
X142209385Y-105583295D01*
X142158255Y-105719684D01*
X142151500Y-105781866D01*
X142151500Y-107578134D01*
X142158255Y-107640316D01*
X142209385Y-107776705D01*
X142296739Y-107893261D01*
X142413295Y-107980615D01*
X142549684Y-108031745D01*
X142611866Y-108038500D01*
X143110674Y-108038500D01*
X143178795Y-108058502D01*
X143199769Y-108075404D01*
X143967749Y-108843383D01*
X143976851Y-108853527D01*
X144000568Y-108883025D01*
X144025173Y-108903671D01*
X144039021Y-108915291D01*
X144042669Y-108918472D01*
X144044481Y-108920115D01*
X144046675Y-108922309D01*
X144079949Y-108949642D01*
X144080747Y-108950304D01*
X144152074Y-109010154D01*
X144156744Y-109012722D01*
X144160861Y-109016103D01*
X144242720Y-109059995D01*
X144243880Y-109060624D01*
X144319989Y-109102466D01*
X144319994Y-109102468D01*
X144325387Y-109105433D01*
X144330465Y-109107044D01*
X144335163Y-109109563D01*
X144424098Y-109136753D01*
X144425302Y-109137128D01*
X144513906Y-109165235D01*
X144519197Y-109165828D01*
X144524298Y-109167388D01*
X144530430Y-109168011D01*
X144530436Y-109168012D01*
X144590938Y-109174157D01*
X144616863Y-109176790D01*
X144618050Y-109176916D01*
X144647438Y-109180213D01*
X144664330Y-109182108D01*
X144664335Y-109182108D01*
X144667827Y-109182500D01*
X144671352Y-109182500D01*
X144672337Y-109182555D01*
X144678032Y-109183003D01*
X144689942Y-109184213D01*
X144714934Y-109186752D01*
X144714939Y-109186752D01*
X144721062Y-109187374D01*
X144766711Y-109183059D01*
X144778568Y-109182500D01*
X146810969Y-109182500D01*
X146814025Y-109182200D01*
X146814032Y-109182200D01*
X146932330Y-109170600D01*
X146944626Y-109169999D01*
X147267430Y-109169999D01*
X147372329Y-109159116D01*
X147378860Y-109156937D01*
X147378865Y-109156936D01*
X147527011Y-109107510D01*
X147538726Y-109103602D01*
X147687889Y-109011297D01*
X147811817Y-108887153D01*
X147903861Y-108737829D01*
X147959085Y-108571335D01*
X147969700Y-108467731D01*
X147969699Y-107880270D01*
X147958816Y-107775371D01*
X147956637Y-107768840D01*
X147956636Y-107768835D01*
X147905620Y-107615922D01*
X147903302Y-107608974D01*
X147810997Y-107459811D01*
X147686853Y-107335883D01*
X147683930Y-107334081D01*
X147643792Y-107277471D01*
X147640558Y-107206548D01*
X147676182Y-107145136D01*
X147682578Y-107139584D01*
X147687889Y-107136297D01*
X147811817Y-107012153D01*
X147903861Y-106862829D01*
X147952056Y-106717528D01*
X147956919Y-106702866D01*
X147956919Y-106702864D01*
X147959085Y-106696335D01*
X147969700Y-106592731D01*
X147969699Y-106005270D01*
X147958816Y-105900371D01*
X147956637Y-105893840D01*
X147956636Y-105893835D01*
X147905620Y-105740922D01*
X147903302Y-105733974D01*
X147810997Y-105584811D01*
X147805815Y-105579638D01*
X147801268Y-105573901D01*
X147802525Y-105572904D01*
X147772604Y-105518228D01*
X147769700Y-105491331D01*
X147769700Y-104846926D01*
X147789702Y-104778805D01*
X147843358Y-104732312D01*
X147913632Y-104722208D01*
X147978212Y-104751702D01*
X147984795Y-104757830D01*
X148445475Y-105218509D01*
X148559661Y-105312302D01*
X148733963Y-105405762D01*
X148829013Y-105434822D01*
X148917200Y-105461784D01*
X148917202Y-105461784D01*
X148923098Y-105463587D01*
X148980951Y-105469464D01*
X149113734Y-105482952D01*
X149113739Y-105482952D01*
X149119862Y-105483574D01*
X149243925Y-105471846D01*
X149310629Y-105465541D01*
X149310631Y-105465541D01*
X149316762Y-105464961D01*
X149417862Y-105434822D01*
X149500393Y-105410219D01*
X149500395Y-105410218D01*
X149506296Y-105408459D01*
X149681246Y-105316218D01*
X149687505Y-105311150D01*
X149830157Y-105195632D01*
X149830158Y-105195631D01*
X149834947Y-105191753D01*
X149890225Y-105125406D01*
X149957605Y-105044535D01*
X149957608Y-105044530D01*
X149961546Y-105039804D01*
X150056221Y-104866159D01*
X150115364Y-104677432D01*
X150120702Y-104628298D01*
X150136059Y-104486936D01*
X150136059Y-104486932D01*
X150136724Y-104480811D01*
X150119487Y-104283787D01*
X150064309Y-104093863D01*
X149973292Y-103918274D01*
X149876662Y-103797227D01*
X149862401Y-103782966D01*
X161228257Y-103782966D01*
X161258565Y-103917446D01*
X161261645Y-103927275D01*
X161341770Y-104124603D01*
X161346413Y-104133794D01*
X161457694Y-104315388D01*
X161463777Y-104323699D01*
X161603213Y-104484667D01*
X161610580Y-104491883D01*
X161774434Y-104627916D01*
X161782881Y-104633831D01*
X161966756Y-104741279D01*
X161976042Y-104745729D01*
X162175001Y-104821703D01*
X162184899Y-104824579D01*
X162288250Y-104845606D01*
X162302299Y-104844410D01*
X162306000Y-104834065D01*
X162306000Y-104833517D01*
X162814000Y-104833517D01*
X162818064Y-104847359D01*
X162831478Y-104849393D01*
X162838184Y-104848534D01*
X162848262Y-104846392D01*
X163052255Y-104785191D01*
X163061842Y-104781433D01*
X163253095Y-104687739D01*
X163261945Y-104682464D01*
X163435328Y-104558792D01*
X163443200Y-104552139D01*
X163594052Y-104401812D01*
X163600730Y-104393965D01*
X163725003Y-104221020D01*
X163730313Y-104212183D01*
X163824670Y-104021267D01*
X163828469Y-104011672D01*
X163890377Y-103807910D01*
X163892555Y-103797837D01*
X163893986Y-103786962D01*
X163891775Y-103772778D01*
X163878617Y-103769000D01*
X162832115Y-103769000D01*
X162816876Y-103773475D01*
X162815671Y-103774865D01*
X162814000Y-103782548D01*
X162814000Y-104833517D01*
X162306000Y-104833517D01*
X162306000Y-103787115D01*
X162301525Y-103771876D01*
X162300135Y-103770671D01*
X162292452Y-103769000D01*
X161243225Y-103769000D01*
X161229694Y-103772973D01*
X161228257Y-103782966D01*
X149862401Y-103782966D01*
X149105051Y-103025617D01*
X149095949Y-103015473D01*
X149076097Y-102990782D01*
X149072232Y-102985975D01*
X149033778Y-102953708D01*
X149030131Y-102950528D01*
X149028319Y-102948885D01*
X149026125Y-102946691D01*
X148992851Y-102919358D01*
X148992053Y-102918696D01*
X148920726Y-102858846D01*
X148916056Y-102856278D01*
X148911939Y-102852897D01*
X148830114Y-102809023D01*
X148828955Y-102808394D01*
X148752819Y-102766538D01*
X148752811Y-102766535D01*
X148747413Y-102763567D01*
X148742331Y-102761955D01*
X148737637Y-102759438D01*
X148648669Y-102732238D01*
X148647641Y-102731918D01*
X148558894Y-102703765D01*
X148553598Y-102703171D01*
X148548502Y-102701613D01*
X148455943Y-102692210D01*
X148454807Y-102692089D01*
X148421192Y-102688319D01*
X148408470Y-102686892D01*
X148408466Y-102686892D01*
X148404973Y-102686500D01*
X148401446Y-102686500D01*
X148400461Y-102686445D01*
X148394781Y-102685998D01*
X148359039Y-102682368D01*
X148293290Y-102655583D01*
X148252458Y-102597504D01*
X148249508Y-102526568D01*
X148251541Y-102519334D01*
X148272524Y-102452376D01*
X148296753Y-102375062D01*
X148303500Y-102301635D01*
X148303499Y-101788366D01*
X148302739Y-101780088D01*
X148298433Y-101733227D01*
X148296753Y-101714938D01*
X148284888Y-101677077D01*
X148247744Y-101558550D01*
X148247743Y-101558548D01*
X148245472Y-101551301D01*
X148226837Y-101520530D01*
X148208657Y-101451902D01*
X148230467Y-101384338D01*
X148245517Y-101366164D01*
X148670131Y-100941550D01*
X148733028Y-100907399D01*
X148789624Y-100895369D01*
X148789633Y-100895366D01*
X148796088Y-100893994D01*
X148893980Y-100850410D01*
X148964522Y-100819003D01*
X148964524Y-100819002D01*
X148970552Y-100816318D01*
X149000486Y-100794570D01*
X149096643Y-100724707D01*
X149125053Y-100704066D01*
X149252840Y-100562144D01*
X149348327Y-100396756D01*
X149407342Y-100215128D01*
X149412367Y-100167324D01*
X149426614Y-100031765D01*
X149427304Y-100025200D01*
X149422751Y-99981876D01*
X149417747Y-99934270D01*
X149430519Y-99864432D01*
X149479021Y-99812585D01*
X149543057Y-99795100D01*
X153318249Y-99795100D01*
X153329432Y-99795627D01*
X153336925Y-99797302D01*
X153344851Y-99797053D01*
X153344852Y-99797053D01*
X153405002Y-99795162D01*
X153408961Y-99795100D01*
X153436872Y-99795100D01*
X153440807Y-99794603D01*
X153440872Y-99794595D01*
X153452709Y-99793662D01*
X153484967Y-99792648D01*
X153488986Y-99792522D01*
X153496905Y-99792273D01*
X153516359Y-99786621D01*
X153535716Y-99782613D01*
X153547946Y-99781068D01*
X153547947Y-99781068D01*
X153555813Y-99780074D01*
X153563184Y-99777155D01*
X153563186Y-99777155D01*
X153596928Y-99763796D01*
X153608158Y-99759951D01*
X153642999Y-99749829D01*
X153643000Y-99749829D01*
X153650609Y-99747618D01*
X153657428Y-99743585D01*
X153657433Y-99743583D01*
X153668044Y-99737307D01*
X153685792Y-99728612D01*
X153704633Y-99721152D01*
X153740403Y-99695164D01*
X153750323Y-99688648D01*
X153781551Y-99670180D01*
X153781554Y-99670178D01*
X153788378Y-99666142D01*
X153802699Y-99651821D01*
X153817733Y-99638980D01*
X153827710Y-99631731D01*
X153834123Y-99627072D01*
X153862314Y-99592995D01*
X153870294Y-99584226D01*
X154845660Y-98608861D01*
X154907970Y-98574837D01*
X154934753Y-98571958D01*
X154990645Y-98571958D01*
X154997097Y-98570586D01*
X154997102Y-98570586D01*
X155084300Y-98552051D01*
X155177446Y-98532252D01*
X155287435Y-98483282D01*
X155357801Y-98473848D01*
X155422098Y-98503954D01*
X155459912Y-98564043D01*
X155463993Y-98611559D01*
X155455967Y-98687927D01*
X155448896Y-98755200D01*
X155449586Y-98761765D01*
X155464079Y-98899654D01*
X155468858Y-98945128D01*
X155527873Y-99126756D01*
X155623360Y-99292144D01*
X155627778Y-99297051D01*
X155627779Y-99297052D01*
X155697805Y-99374824D01*
X155751147Y-99434066D01*
X155830136Y-99491455D01*
X155878915Y-99526895D01*
X155905648Y-99546318D01*
X155911676Y-99549002D01*
X155911678Y-99549003D01*
X156073311Y-99620966D01*
X156080112Y-99623994D01*
X156173512Y-99643847D01*
X156260456Y-99662328D01*
X156260461Y-99662328D01*
X156266913Y-99663700D01*
X156457887Y-99663700D01*
X156464339Y-99662328D01*
X156464344Y-99662328D01*
X156551287Y-99643847D01*
X156644688Y-99623994D01*
X156651489Y-99620966D01*
X156813122Y-99549003D01*
X156813124Y-99549002D01*
X156819152Y-99546318D01*
X156845886Y-99526895D01*
X156894664Y-99491455D01*
X156973653Y-99434066D01*
X157026995Y-99374824D01*
X157097021Y-99297052D01*
X157097022Y-99297051D01*
X157101440Y-99292144D01*
X157196927Y-99126756D01*
X157255942Y-98945128D01*
X157260722Y-98899654D01*
X157275214Y-98761765D01*
X157275904Y-98755200D01*
X157268833Y-98687927D01*
X157256632Y-98571835D01*
X157256632Y-98571833D01*
X157255942Y-98565272D01*
X157196927Y-98383644D01*
X157101440Y-98218256D01*
X157028263Y-98136985D01*
X156997547Y-98072979D01*
X156995900Y-98052676D01*
X156995900Y-95481167D01*
X156996427Y-95469984D01*
X156998102Y-95462491D01*
X156997571Y-95445582D01*
X156995962Y-95394414D01*
X156995900Y-95390455D01*
X156995900Y-95362544D01*
X156995395Y-95358544D01*
X156994462Y-95346701D01*
X156993631Y-95320244D01*
X156993073Y-95302510D01*
X156987422Y-95283058D01*
X156983414Y-95263706D01*
X156981867Y-95251463D01*
X156980874Y-95243603D01*
X156971661Y-95220332D01*
X156964600Y-95202497D01*
X156960755Y-95191270D01*
X156960121Y-95189087D01*
X156948418Y-95148807D01*
X156938107Y-95131372D01*
X156929412Y-95113624D01*
X156921952Y-95094783D01*
X156895964Y-95059013D01*
X156889448Y-95049093D01*
X156870980Y-95017865D01*
X156870978Y-95017862D01*
X156866942Y-95011038D01*
X156852621Y-94996717D01*
X156839780Y-94981683D01*
X156832531Y-94971706D01*
X156827872Y-94965293D01*
X156793795Y-94937102D01*
X156785016Y-94929112D01*
X155697652Y-93841747D01*
X155690112Y-93833461D01*
X155686000Y-93826982D01*
X155636348Y-93780356D01*
X155633507Y-93777602D01*
X155613770Y-93757865D01*
X155610573Y-93755385D01*
X155601551Y-93747680D01*
X155593334Y-93739964D01*
X155569321Y-93717414D01*
X155562375Y-93713595D01*
X155562372Y-93713593D01*
X155551566Y-93707652D01*
X155535047Y-93696801D01*
X155530492Y-93693268D01*
X155519041Y-93684386D01*
X155511772Y-93681241D01*
X155511768Y-93681238D01*
X155478463Y-93666826D01*
X155467813Y-93661609D01*
X155429060Y-93640305D01*
X155416617Y-93637110D01*
X155409438Y-93635267D01*
X155390734Y-93628863D01*
X155379420Y-93623967D01*
X155379419Y-93623967D01*
X155372145Y-93620819D01*
X155364322Y-93619580D01*
X155364312Y-93619577D01*
X155328476Y-93613901D01*
X155316856Y-93611495D01*
X155281711Y-93602472D01*
X155281710Y-93602472D01*
X155274030Y-93600500D01*
X155253776Y-93600500D01*
X155234065Y-93598949D01*
X155221886Y-93597020D01*
X155214057Y-93595780D01*
X155206165Y-93596526D01*
X155170039Y-93599941D01*
X155158181Y-93600500D01*
X154796460Y-93600500D01*
X154728339Y-93580498D01*
X154681846Y-93526842D01*
X154671742Y-93456568D01*
X154701236Y-93391988D01*
X154760253Y-93353814D01*
X154787426Y-93345662D01*
X154787432Y-93345660D01*
X154792384Y-93344174D01*
X154992994Y-93245896D01*
X155174860Y-93116173D01*
X155283091Y-93008319D01*
X155345462Y-92974404D01*
X155416268Y-92979592D01*
X155473030Y-93022238D01*
X155490012Y-93053341D01*
X155534385Y-93171705D01*
X155621739Y-93288261D01*
X155738295Y-93375615D01*
X155874684Y-93426745D01*
X155936866Y-93433500D01*
X157733134Y-93433500D01*
X157795316Y-93426745D01*
X157931705Y-93375615D01*
X158048261Y-93288261D01*
X158135615Y-93171705D01*
X158186745Y-93035316D01*
X158193500Y-92973134D01*
X158193500Y-91176866D01*
X158186745Y-91114684D01*
X158183973Y-91107288D01*
X158183971Y-91107282D01*
X158174907Y-91083105D01*
X158169724Y-91012298D01*
X158203645Y-90949929D01*
X158265901Y-90915800D01*
X158292591Y-90912876D01*
X158308026Y-90912839D01*
X158315829Y-90912821D01*
X158383997Y-90932662D01*
G37*
%TD.AperFunction*%
%TA.AperFunction,Conductor*%
G36*
X169584000Y-92154884D02*
G01*
X169588475Y-92170123D01*
X169589865Y-92171328D01*
X169597548Y-92172999D01*
X169874669Y-92172999D01*
X169881490Y-92172629D01*
X169932352Y-92167105D01*
X169947604Y-92163479D01*
X170068054Y-92118324D01*
X170083649Y-92109786D01*
X170104018Y-92094520D01*
X170170525Y-92069672D01*
X170239907Y-92084725D01*
X170255148Y-92094520D01*
X170283295Y-92115615D01*
X170419684Y-92166745D01*
X170481866Y-92173500D01*
X171451000Y-92173500D01*
X171519121Y-92193502D01*
X171565614Y-92247158D01*
X171577000Y-92299500D01*
X171577000Y-93512392D01*
X171556998Y-93580513D01*
X171503342Y-93627006D01*
X171433068Y-93637110D01*
X171389798Y-93622133D01*
X171388683Y-93621352D01*
X171234685Y-93549542D01*
X171212404Y-93539152D01*
X171212403Y-93539152D01*
X171207422Y-93536829D01*
X171202114Y-93535407D01*
X171202112Y-93535406D01*
X171019553Y-93486489D01*
X171019551Y-93486489D01*
X171014238Y-93485065D01*
X171008752Y-93484585D01*
X171008746Y-93484584D01*
X170854831Y-93471117D01*
X170844921Y-93469853D01*
X170827539Y-93466929D01*
X170821158Y-93466851D01*
X170819859Y-93466835D01*
X170819855Y-93466835D01*
X170815000Y-93466776D01*
X170790715Y-93470254D01*
X170787412Y-93470727D01*
X170769549Y-93472000D01*
X167693207Y-93472000D01*
X167672303Y-93470254D01*
X167664736Y-93468981D01*
X167652539Y-93466929D01*
X167646241Y-93466852D01*
X167644860Y-93466835D01*
X167644856Y-93466835D01*
X167640000Y-93466776D01*
X167628039Y-93468489D01*
X167621170Y-93469281D01*
X167543635Y-93476065D01*
X167440762Y-93485065D01*
X167435449Y-93486489D01*
X167435447Y-93486489D01*
X167252888Y-93535406D01*
X167252886Y-93535407D01*
X167247578Y-93536829D01*
X167242597Y-93539152D01*
X167242596Y-93539152D01*
X167071304Y-93619026D01*
X167071299Y-93619029D01*
X167066317Y-93621352D01*
X167061810Y-93624508D01*
X167061808Y-93624509D01*
X166906998Y-93732908D01*
X166906995Y-93732910D01*
X166902487Y-93736067D01*
X166761067Y-93877487D01*
X166757910Y-93881995D01*
X166757908Y-93881998D01*
X166719989Y-93936152D01*
X166664532Y-93980480D01*
X166593912Y-93987789D01*
X166527681Y-93952976D01*
X166276752Y-93702047D01*
X166269212Y-93693761D01*
X166265100Y-93687282D01*
X166237756Y-93661604D01*
X166215449Y-93640657D01*
X166212607Y-93637902D01*
X166192870Y-93618165D01*
X166189673Y-93615685D01*
X166180651Y-93607980D01*
X166154200Y-93583141D01*
X166148421Y-93577714D01*
X166141475Y-93573895D01*
X166141472Y-93573893D01*
X166130666Y-93567952D01*
X166114147Y-93557101D01*
X166113683Y-93556741D01*
X166098141Y-93544686D01*
X166090872Y-93541541D01*
X166090868Y-93541538D01*
X166057563Y-93527126D01*
X166046913Y-93521909D01*
X166008160Y-93500605D01*
X165988537Y-93495567D01*
X165969834Y-93489163D01*
X165958520Y-93484267D01*
X165958519Y-93484267D01*
X165951245Y-93481119D01*
X165943422Y-93479880D01*
X165943412Y-93479877D01*
X165907576Y-93474201D01*
X165895956Y-93471795D01*
X165860811Y-93462772D01*
X165860810Y-93462772D01*
X165853130Y-93460800D01*
X165832876Y-93460800D01*
X165813165Y-93459249D01*
X165800986Y-93457320D01*
X165793157Y-93456080D01*
X165785265Y-93456826D01*
X165749139Y-93460241D01*
X165737281Y-93460800D01*
X164208094Y-93460800D01*
X164139973Y-93440798D01*
X164118999Y-93423895D01*
X161814580Y-91119475D01*
X161780554Y-91057163D01*
X161785619Y-90986347D01*
X161828166Y-90929512D01*
X161894686Y-90904701D01*
X161903379Y-90904380D01*
X164112684Y-90899181D01*
X168195705Y-90889574D01*
X168263871Y-90909416D01*
X168310490Y-90962962D01*
X168322000Y-91015574D01*
X168322001Y-91709669D01*
X168322371Y-91716490D01*
X168327895Y-91767352D01*
X168331521Y-91782604D01*
X168376676Y-91903054D01*
X168385214Y-91918649D01*
X168461715Y-92020724D01*
X168474276Y-92033285D01*
X168576351Y-92109786D01*
X168591946Y-92118324D01*
X168712394Y-92163478D01*
X168727649Y-92167105D01*
X168778514Y-92172631D01*
X168785328Y-92173000D01*
X169057885Y-92173000D01*
X169073124Y-92168525D01*
X169074329Y-92167135D01*
X169076000Y-92159452D01*
X169076000Y-90887503D01*
X169584000Y-90886308D01*
X169584000Y-92154884D01*
G37*
%TD.AperFunction*%
%TD*%
M02*
