M48
; DRILL file {KiCad (6.0.0)} date Tue Jan 25 23:20:35 2022
; FORMAT={-:-/ absolute / inch / decimal}
; #@! TF.CreationDate,2022-01-25T23:20:35+01:00
; #@! TF.GenerationSoftware,Kicad,Pcbnew,(6.0.0)
; #@! TF.FileFunction,Plated,1,2,PTH
FMAT,2
INCH
; #@! TA.AperFunction,Plated,PTH,ViaDrill
T1C0.0157
; #@! TA.AperFunction,Plated,PTH,ComponentDrill
T2C0.0256
; #@! TA.AperFunction,Plated,PTH,ComponentDrill
T3C0.0276
; #@! TA.AperFunction,Plated,PTH,ComponentDrill
T4C0.0394
; #@! TA.AperFunction,Plated,PTH,ComponentDrill
T5C0.0984
%
G90
G05
T1
X5.509Y-3.972
X5.509Y-4.03
X5.509Y-4.1
X5.509Y-4.155
X5.51Y-4.332
X5.51Y-4.411
X5.511Y-3.836
X5.511Y-3.904
X5.512Y-3.767
X5.512Y-4.247
X5.514Y-4.507
X5.54Y-4.576
X5.591Y-4.498
X5.606Y-4.613
X5.616Y-3.635
X5.626Y-4.112
X5.627Y-3.976
X5.627Y-4.027
X5.627Y-4.076
X5.628Y-3.919
X5.629Y-3.87
X5.631Y-3.83
X5.64Y-4.351
X5.641Y-3.602
X5.644Y-4.312
X5.649Y-3.769
X5.6561Y-3.4384
X5.665Y-2.966
X5.667Y-4.609
X5.668Y-3.833
X5.679Y-3.626
X5.7Y-4.637
X5.711Y-3.833
X5.715Y-3.56
X5.728Y-3.775
X5.735Y-4.359
X5.739Y-3.61
X5.747Y-4.318
X5.789Y-3.632
X5.794Y-4.637
X5.82Y-3.017
X5.832Y-4.579
X5.847Y-3.433
X5.847Y-3.938
X5.8565Y-2.8385
X5.859Y-4.199
X5.861Y-3.8755
X5.869Y-4.393
X5.871Y-4.113
X5.871Y-4.632
X5.874Y-4.243
X5.895Y-4.391
X5.9Y-3.85
X5.903Y-3.751
X5.91Y-4.279
X5.92Y-2.964
X5.923Y-3.181
X5.931Y-4.392
X5.932Y-4.004
X5.941Y-3.697
X5.942Y-4.096
X5.949Y-3.955
X5.951Y-4.042
X5.981Y-3.978
X5.981Y-4.018
X5.982Y-4.069
X5.983Y-4.108
X5.989Y-4.633
X5.992Y-3.269
X6.0059Y-4.3381
X6.05Y-4.0
X6.05Y-4.05
X6.053Y-4.514
X6.055Y-4.545
X6.058Y-4.584
X6.059Y-3.842
X6.059Y-4.628
X6.0705Y-3.3596
X6.084Y-4.173
X6.0982Y-3.845
X6.1Y-4.0
X6.1Y-4.05
X6.118Y-4.194
X6.156Y-3.888
X6.158Y-3.31
X6.167Y-3.402
X6.179Y-2.871
X6.184Y-4.031
X6.185Y-4.093
X6.191Y-4.331
X6.207Y-3.22
X6.211Y-3.731
X6.215Y-4.553
X6.215Y-4.607
X6.229Y-4.094
X6.231Y-4.031
X6.236Y-3.045
X6.247Y-3.282
X6.25Y-4.553
X6.25Y-4.607
X6.259Y-3.1608
X6.259Y-4.33
X6.269Y-3.677
X6.269Y-3.728
X6.28Y-4.167
X6.283Y-3.972
X6.283Y-4.03
X6.283Y-4.093
X6.284Y-3.847
X6.284Y-3.905
X6.285Y-4.553
X6.285Y-4.607
X6.324Y-4.332
X6.339Y-4.168
X6.386Y-4.332
X6.409Y-4.169
X6.432Y-4.634
X6.435Y-4.569
X6.439Y-3.614
X6.443Y-4.168
X6.492Y-4.171
X6.498Y-4.57
X6.499Y-4.633
X6.5Y-3.591
X6.5Y-3.624
X6.5Y-3.657
X6.537Y-4.193
X6.542Y-3.241
X6.542Y-4.059
X6.557Y-3.118
X6.584Y-3.981
X6.585Y-3.882
X6.587Y-3.936
X6.601Y-4.413
X6.641Y-3.999
X6.661Y-4.338
X6.664Y-4.147
X6.6665Y-3.3245
X6.671Y-3.567
X6.694Y-3.825
X6.703Y-4.147
X6.72Y-4.201
X6.723Y-3.897
X6.723Y-4.406
X6.7335Y-3.1795
X6.736Y-4.0
T4
X5.562Y-2.9286
X5.562Y-3.0286
X5.562Y-3.1286
X5.562Y-3.2286
X5.65Y-4.2
X5.8746Y-3.625
X5.9746Y-3.625
X6.0746Y-3.625
X6.1746Y-3.625
X6.4Y-3.7754
X6.4Y-3.8754
X6.4Y-3.9754
X6.4Y-4.0754
X6.47Y-2.879
X6.47Y-2.979
X6.47Y-3.079
X6.47Y-3.179
X6.47Y-3.279
X6.5Y-4.45
T5
X6.65Y-4.55
X6.658Y-2.912
T2
G00X6.1537Y-4.4837
M15
G01X6.1537Y-4.4679
M16
G05
G00X6.3443Y-4.4837
M15
G01X6.3443Y-4.4679
M16
G05
T3
G00X6.1415Y-4.6037
M15
G01X6.1415Y-4.5841
M16
G05
G00X6.3565Y-4.6037
M15
G01X6.3565Y-4.5841
M16
G05
T0
M30
